<?xml version="1.0" encoding="UTF-8"?>
<svg id="Layer_1" data-name="Layer 1" xmlns="http://www.w3.org/2000/svg" viewBox="0 0 84.7 50.1">
  <defs>
    <style>
      .cls-1 {
        fill: #fff;
      }
    </style>
  </defs>
  <path class="cls-1" d="M63.3,35c-.1,0-.3,0-.4,0-5,0-10,0-14.9,0-2.3,0-4.7,0-7,0-.8,0-1.4-.4-1.6-1.1-.2-.7,0-1.4,.6-1.9,.3-.2,.7-.3,1.1-.3,3,0,6.1,0,9.1,0,4.5,0,9.1,0,13.6,0,.1,0,.3,0,.4,0,.6-.3,1.2-.3,1.7,.1,.6,.4,.8,1,.7,1.7-.3,2,.5,3.7,2.2,4.5,1.6,.8,3.2,.7,4.6-.4,1.4-1.1,1.9-2.6,1.5-4.4-.4-1.8-1.6-2.8-3.4-3.1-.4,0-.9,0-1.3,0-.9,0-1.8-.5-1.9-1.3-.1-.9,.5-1.8,1.4-1.9,3.4-.5,6.8,1.4,8.1,4.7,0,.2,.1,.3,.4,.2,1.1-.2,2-.7,2.7-1.7,.4-.6,.6-1.2,.6-1.9,0-1.6,0-3.2,0-4.9,0-1.2-.5-2.3-1.7-2.9-.4-.2-.8-.3-1.2-.5-1.8-.9-3.2-2.3-4.5-3.8-2.7-3.3-5.5-6.7-8.2-10-.5-.6-1-1.1-1.5-1.7-.6-.6-1.3-1-2.2-1-.1,0-.3,0-.4,0-4.1,0-8.3,0-12.4,0-5.9,0-11.7,0-17.6,0-.6,0-1.2-.2-1.6-.7-.4-.5-.4-1.1-.2-1.7,.3-.6,.8-.9,1.4-1,.1,0,.3,0,.4,0,4.4,0,8.7,0,13.1,0,5.6,0,11.2,0,16.8,0,2.1,0,3.9,.8,5.2,2.4,1.4,1.7,2.8,3.4,4.3,5.1,1.8,2.2,3.6,4.5,5.5,6.7,.9,1.1,2,2.1,3.2,2.7,.4,.2,.9,.4,1.3,.6,2.2,1.2,3.2,3.2,3.3,5.6,0,1.7,0,3.4,0,5.1,0,2.6-1.3,4.5-3.6,5.8-.8,.5-1.7,.7-2.6,.9-.2,0-.2,.1-.2,.3-.5,4-4,6.8-7.9,6.5-3.5-.2-6.4-3-6.9-6.4,0,0,0-.2,0-.3Z"/>
  <path class="cls-1" d="M14.3,15.1c0,0-.2,0-.3,0-2.7,0-5.3,0-8,0-.9,0-1.7,0-2.6,0-.8,0-1.4-.4-1.6-1.1-.2-.7,0-1.4,.5-1.8,.3-.3,.7-.3,1.1-.3,2.2,0,4.5,0,6.7,0,1.4,0,2.9,0,4.3,0,.2,0,.3,0,.3-.3,.4-1.8,.7-3.7,1.1-5.5,.4-1.8,1.2-3.3,2.6-4.4C20.1,.4,21.9,0,23.8,0c.8,0,1.4,.8,1.5,1.6,0,.8-.5,1.6-1.4,1.7-.5,0-1,0-1.5,.2-1.7,.3-2.7,1.3-3.1,2.9-.4,1.6-.7,3.3-1,4.9-.4,2.3-.8,4.6-1,6.9-.3,2.1-.4,4.2-.5,6.3,0,1.9,.5,3.7,1.9,5.1,.6,.5,1.2,1,1.9,1.3,.2,0,.4,.2,.6,.3,.1-.2,.2-.4,.3-.6,1-1.8,2.5-3,4.4-3.5,3.2-.9,6.4,.2,8.3,2.9,2.3,3.2,1.6,7.9-1.6,10.3-4,3-9.5,1.5-11.5-3-.3-.8-.5-1.6-.6-2.5,0-.2,0-.3-.3-.4-2-.7-3.7-1.8-4.9-3.5-1-1.4-1.6-3-1.8-4.7-.2-1.4,0-2.8,0-4.2,.2-2.2,.5-4.4,.8-6.6,0,0,0,0,0-.1Zm18,19.1c0-2.3-1.9-4.2-4.3-4.2-2.3,0-4.2,1.9-4.2,4.2,0,2.3,1.9,4.2,4.3,4.2,2.3,0,4.2-1.9,4.2-4.2Z"/>
  <path class="cls-1" d="M52.4,46.8c6.9,0,13.9,0,20.8,0,.9,0,1.5,.4,1.7,1.2,.3,.9-.3,1.9-1.3,2.1-.1,0-.3,0-.4,0-13.9,0-27.8,0-41.6,0-1.4,0-2.2-1.4-1.6-2.4,.3-.6,.9-.8,1.5-.8,2.8,0,5.6,0,8.4,0,4.2,0,8.3,0,12.5,0Z"/>
  <path class="cls-1" d="M57.2,15.5h.5c3.1,0,6.1,0,9.2,0,1.1,0,1.9,.8,1.7,1.9-.1,.8-.8,1.4-1.7,1.4-1.7,0-3.3,0-5,0-1.7,0-3.5,0-5.2,0-.5,0-1.1,0-1.6,0-.9,0-1.5-.9-1.4-1.8,.2-1.3,.3-2.5,.5-3.8,.3-1.8,.5-3.6,.8-5.4,.1-.7,.6-1.2,1.3-1.3,.7-.1,1.4,.2,1.7,.8,.1,.3,.2,.7,.2,1-.3,2.3-.6,4.6-.9,7,0,0,0,.2,0,.4Z"/>
  <path class="cls-1" d="M30.2,17.6c-2.3,0-4.6,0-7,0-.8,0-1.5-.5-1.7-1.3-.3-1,.5-2,1.5-2.1,0,0,0,0,.1,0,4.7,0,9.4,0,14,0,.8,0,1.5,.5,1.7,1.3,.3,1.1-.6,2.1-1.7,2.1-2.3,0-4.7,0-7,0Z"/>
  <path class="cls-1" d="M30.9,7.3c2.1,0,4.2,0,6.4,0,.9,0,1.5,.6,1.7,1.5,.1,.8-.4,1.6-1.2,1.8-.2,0-.4,0-.6,0-4.1,0-8.3,0-12.4,0-1,0-1.7-.6-1.8-1.5-.1-1,.6-1.9,1.6-1.9,1.9,0,3.8,0,5.8,0,.2,0,.4,0,.6,0Z"/>
  <path class="cls-1" d="M17.6,46.8c1.9,0,3.8,0,5.7,0,.7,0,1.2,.3,1.5,.8,.3,.6,.3,1.1,0,1.7-.3,.5-.9,.8-1.5,.8-2,0-4.1,0-6.1,0-1.7,0-3.5,0-5.2,0-.7,0-1.3-.3-1.5-1-.3-.6-.2-1.2,.3-1.7,.3-.4,.8-.5,1.3-.5,1.9,0,3.8,0,5.7,0Z"/>
  <path class="cls-1" d="M5.1,24.1c-1.1,0-2.2,0-3.3,0-.8,0-1.4-.5-1.6-1.3-.2-.7,.2-1.5,.9-1.8,.2-.1,.5-.2,.8-.2,2.1,0,4.3,0,6.4,0,1,0,1.7,.7,1.7,1.6,0,.9-.7,1.6-1.7,1.6-1.1,0-2.2,0-3.2,0Z"/>
  <path class="cls-1" d="M3.4,3.3c-.6,0-1.2,0-1.7,0C.7,3.3,0,2.6,0,1.7,0,.8,.7,0,1.7,0c1.2,0,2.3,0,3.5,0,1,0,1.7,.7,1.7,1.6,0,.9-.7,1.6-1.7,1.6-.6,0-1.2,0-1.7,0Z"/>
  <path class="cls-1" d="M55.4,24.5c-.5,0-1,0-1.5,0-1.1,0-1.9-1.3-1.4-2.4,.3-.6,.8-1,1.5-1,.8,0,1.7,0,2.5,0,.9,0,1.6,.7,1.6,1.6,0,.9-.7,1.6-1.7,1.6-.4,0-.7,0-1.1,0,0,0,0,0,0,0Z"/>
</svg>