<?xml version="1.0" encoding="UTF-8"?>
<svg id="Layer_1" data-name="Layer 1" xmlns="http://www.w3.org/2000/svg" viewBox="0 0 27.6 26">
  <defs>
    <style>
      .cls-1 {
        fill: #f46d25;
      }
    </style>
  </defs>
  <g id="L1XROI">
    <g>
      <path class="cls-1" d="M20.9,7.1c-.8-.9-.1-.1-.9-1-1.2-1.5-2.5-2.9-3.7-4.4-.3-.4-.3-.8,0-1.1,.2-.3,.6-.5,1-.3,.2,0,.4,.3,.5,.4,1.2,1.4,2.4,2.9,3.7,4.3,.4,.5-.6-.8-.2-.3,.6,.7,1.2,1.4,1.8,2.2,.1,.1,.3,.2,.5,.2,.6,0,1.1,0,1.7,0,1.3,0,2.3,1,2.3,2.3,0,.3,0,.6,0,1,0,1-.6,1.8-1.5,2.2-.2,0-.3,.2-.3,.4-.6,3.6-1.2,7.2-1.8,10.8-.2,1.4-1.4,2.3-2.8,2.3-4.7,0-9.4,0-14.1,0-1.7,0-2.7-.9-3.1-2.5-.7-3.5-1.4-6.9-2-10.4,0-.3-.1-.4-.4-.6C.6,12.2,0,11.4,0,10.5c0-.4,0-.7,0-1.1,0-1.3,1-2.3,2.3-2.3,.6,0,1.2,0,1.7,0,.2,0,.4,0,.5-.2,2.2-2.6,3.2-3.7,5.4-6.2,0,0,.1-.2,.2-.2,.4-.4,.9-.5,1.3-.2,.4,.3,.4,.8,0,1.3-.5,.6-1.1,1.2-1.6,1.9-1.4,1.7-1.7,1.8-3.1,3.5,0,0,0,.1-.2,.2h14.3Zm3.1,5.7H3.6c0,.1,0,.2,0,.3,.7,3.5,1.4,6.9,2,10.4,.1,.6,.5,1,1.2,1,4.7,0,9.4,0,14.2,0,.7,0,1.1-.4,1.2-1,.4-2.4,.8-4.9,1.2-7.3,.2-1.1,.4-2.1,.5-3.2Zm-10.2-1.8h0c3.8,0,7.6,0,11.4,0,.5,0,.7-.2,.7-.7,0-.2,0-.4,0-.6,0-.6-.2-.8-.8-.8-7.4,0-14.8,0-22.3,0-.2,0-.3,0-.5,0-.4,0-.6,.2-.6,.6,0,.3,0,.5,0,.8,0,.6,.2,.8,.8,.8,3.8,0,7.5,0,11.3,0Z"/>
      <path class="cls-1" d="M20.2,15.8c-.2,1.1-.4,2.3-.5,3.5-.1,.7-.2,1.4-.3,2.1,0,.5-.4,.7-.8,.7-.4,0-.8-.3-.8-.7,0-.1,0-.3,0-.4,.3-1.8,.6-3.7,.9-5.5,0-.5,.5-.8,.9-.7,.5,0,.8,.4,.8,1Z"/>
      <path class="cls-1" d="M9.9,21.3c0,.5-.3,.8-.7,.9-.5,0-.9-.2-1-.7-.2-1-.3-1.9-.5-2.9-.1-.9-.3-1.8-.4-2.6,0-.5,.2-1,.7-1,.5,0,.9,.3,1,.8,.3,1.8,.6,3.6,.8,5.5,0,0,0,.1,0,.2Z"/>
      <path class="cls-1" d="M14.6,18.5c0,.9,0,1.9,0,2.8,0,.4-.2,.7-.6,.8-.3,0-.7,0-.9-.3,0-.2-.2-.3-.2-.5,0-1.8,0-3.7,0-5.5,0-.5,.4-.9,.9-.9,.5,0,.9,.4,.9,.9,0,.9,0,1.8,0,2.7h0Z"/>
    </g>
  </g>
</svg>