<?xml version="1.0" encoding="UTF-8"?>
<svg id="Layer_1" data-name="Layer 1" xmlns="http://www.w3.org/2000/svg" viewBox="0 0 33.7 31.8">
  <defs>
    <style>
      .cls-1 {
        fill: #f4f5f0;
      }
    </style>
  </defs>
  <g id="L1XROI">
    <g>
      <path class="cls-1" d="M25.6,8.6c-1-1.2-.2-.2-1.1-1.2-1.5-1.8-3-3.6-4.5-5.3-.4-.4-.4-1-.1-1.4,.3-.4,.8-.6,1.2-.3,.2,.1,.5,.3,.6,.5,1.5,1.7,3,3.5,4.5,5.3s-.8-.9-.3-.3c.7,.9,1.5,1.8,2.3,2.6,.1,.1,.4,.3,.6,.3,.7,0,1.4,0,2.1,0,1.6,0,2.8,1.2,2.8,2.9,0,.4,0,.8,0,1.2,0,1.2-.7,2.2-1.9,2.6-.2,0-.3,.2-.4,.4-.7,4.4-1.5,8.8-2.2,13.2-.3,1.7-1.7,2.8-3.4,2.8-5.7,0-11.5,0-17.2,0-2,0-3.4-1.1-3.7-3.1-.8-4.2-1.7-8.5-2.5-12.7,0-.3-.2-.5-.5-.7C.7,14.9,0,13.9,0,12.8c0-.4,0-.9,0-1.3,0-1.6,1.2-2.8,2.8-2.8,.7,0,1.4,0,2.1,0,.3,0,.5,0,.7-.3,2.7-3.2,3.9-4.5,6.6-7.6,0,0,.2-.2,.2-.3,.5-.5,1.1-.6,1.6-.2,.5,.4,.5,1,0,1.6-.6,.8-1.3,1.5-1.9,2.3-1.7,2-2.1,2.2-3.8,4.3,0,0,0,.1-.2,.2H25.6Zm3.8,6.9H4.4c0,.1,0,.2,0,.3,.8,4.2,1.7,8.4,2.5,12.7,.2,.8,.7,1.2,1.5,1.2,5.8,0,11.5,0,17.3,0,.8,0,1.3-.4,1.5-1.3,.5-3,1-6,1.5-8.9,.2-1.3,.4-2.6,.7-4Zm-12.5-2.2h0c4.6,0,9.3,0,13.9,0,.6,0,.9-.2,.9-.9,0-.3,0-.5,0-.8,0-.8-.2-1-1-1-9.1,0-18.1,0-27.2,0-.2,0-.4,0-.6,0-.4,0-.7,.2-.7,.7,0,.3,0,.6,0,1,0,.7,.2,1,1,1,4.6,0,9.2,0,13.8,0Z"/>
      <path class="cls-1" d="M24.7,19.3c-.2,1.4-.4,2.9-.7,4.3-.1,.9-.3,1.7-.4,2.6,0,.6-.5,.9-1,.9-.5,0-.9-.3-1-.8,0-.2,0-.3,0-.5,.3-2.3,.7-4.5,1-6.8,0-.6,.6-1,1.2-.9,.6,0,1,.5,.9,1.2Z"/>
      <path class="cls-1" d="M12.1,26c0,.6-.4,1-.9,1.1-.6,0-1.1-.3-1.2-.9-.2-1.2-.4-2.4-.6-3.5-.2-1.1-.3-2.1-.5-3.2,0-.6,.3-1.2,.9-1.3,.6,0,1.1,.3,1.2,.9,.4,2.2,.7,4.5,1,6.7,0,0,0,.1,0,.2Z"/>
      <path class="cls-1" d="M17.9,22.6c0,1.1,0,2.3,0,3.4,0,.5-.3,.9-.8,1-.4,.1-.9,0-1.1-.4-.1-.2-.2-.4-.2-.6,0-2.3,0-4.5,0-6.8,0-.6,.5-1.1,1-1.1,.6,0,1.1,.5,1.1,1.1,0,1.1,0,2.2,0,3.3h0Z"/>
    </g>
  </g>
</svg>