<?xml version="1.0" encoding="UTF-8"?>
<svg id="Layer_1" data-name="Layer 1" xmlns="http://www.w3.org/2000/svg" viewBox="0 0 29 13.6">
  <defs>
    <style>
      .cls-1 {
        fill: #f46d25;
      }
    </style>
  </defs>
  <path class="cls-1" d="M14.1,0c5.7,0,10.3,1.9,14.2,5.6,1,1,1,1.3,0,2.3-7.6,7.6-20,7.5-27.6,0-.9-.9-.9-1.3,0-2.1C4.5,2,9.1,0,14.1,0Zm4.9,6.7c0-2.5-2-4.5-4.5-4.5-2.5,0-4.5,2-4.5,4.5,0,2.5,2,4.5,4.6,4.5,2.5,0,4.4-2,4.4-4.5Zm-9.6,4.2c-1.9-2.8-1.9-5.5,0-8.3-2.8,.9-5.1,2.2-7.1,4.2,2,1.9,4.3,3.3,7.1,4.1ZM19.5,2.7c1.9,2.8,1.9,5.4,0,8.2,2.8-.9,5-2.2,7-4.1-2-1.9-4.3-3.3-7.1-4.1Z"/>
  <path class="cls-1" d="M15.1,4.2c-.5,.7-.8,1.4,0,2.1,.7,.6,1.3,.4,2-.1,.3,1.2-.1,2.3-1.1,2.9-1,.6-2.3,.5-3.2-.3-.9-.8-1.1-2-.6-3.1,.5-1.1,1.6-1.6,3-1.4Z"/>
</svg>