<?xml version="1.0" encoding="UTF-8"?>
<svg id="Layer_1" data-name="Layer 1" xmlns="http://www.w3.org/2000/svg" viewBox="0 0 30.1 29.9">
  <defs>
    <style>
      .cls-1 {
        fill: #f4f5f0;
      }
    </style>
  </defs>
  <g id="zSFYsh">
    <path class="cls-1" d="M0,6.6c.2-.8,.3-1.6,.6-2.4C1.6,1.3,4.1-.3,7.2,0c.2,0,.5,.2,.7,.4,1.3,2.1,2.5,4.1,3.7,6.2,.4,.7,.3,1.6-.4,2.3-.5,.5-1.1,1-1.7,1.5-.3,.3-.6,.5-.9,.8-.4,.4-.5,.9-.2,1.4,2.2,3.9,5.1,7,9.1,9.1,.5,.3,.9,.3,1.3-.2,.5-.6,1-1.2,1.5-1.7,.3-.4,.7-.8,1.1-1.1,.7-.5,1.4-.5,2.1-.1,1.8,1,3.5,2,5.3,3,.7,.4,1,1.1,1.2,1.8v.9c0,.1,0,.2-.1,.4-.4,2-1.6,3.4-3.5,4.2-2.6,1.1-5.3,1.3-8,.4-3.6-1.2-6.7-3.2-9.5-5.7-3.4-3-6.2-6.4-7.8-10.7C.6,11.7,.4,10.1,0,8.6c0-.7,0-1.3,0-2Z"/>
  </g>
</svg>