<?xml version="1.0" encoding="UTF-8"?>
<svg id="Layer_1" data-name="Layer 1" xmlns="http://www.w3.org/2000/svg" viewBox="0 0 32.6 31.8">
  <defs>
    <style>
      .cls-1 {
        fill: #f4f5f0;
      }
    </style>
  </defs>
  <g id="_4Np98G.tif" data-name="4Np98G.tif">
    <path class="cls-1" d="M30.4,31.8h-.3c-.6-.1-1.1-.3-1.5-.7-2-1.8-3.9-3.5-5.9-5.3-.6-.6-1.3-1.1-1.9-1.7,0,0-.2,.1-.2,.1-2.9,1.9-6.1,2.6-9.6,2.1C5.8,25.5,1.4,21.3,.3,16.1,.2,15.4,.1,14.8,0,14.1c0-.6,0-1.2,0-1.8,0-.5,.1-1,.2-1.5C1.6,3.5,8.7-1.2,16,.3c9.2,1.9,13.5,12.5,8.3,20.3,0,0-.1,.2-.2,.3,0,0,.1,.1,.2,.2,2.4,2.1,4.7,4.2,7.1,6.3,.5,.5,1,1,1.2,1.7v.8c0,0,0,.2-.1,.3-.3,.8-.8,1.3-1.6,1.5-.1,0-.3,0-.4,0ZM3,13.2c0,5.7,4.6,10.3,10.3,10.3,5.7,0,10.3-4.6,10.3-10.2,0-5.7-4.6-10.3-10.3-10.3-5.7,0-10.3,4.6-10.3,10.3Z"/>
  </g>
</svg>