<?xml version="1.0" encoding="UTF-8"?>
<svg id="Layer_1" data-name="Layer 1" xmlns="http://www.w3.org/2000/svg" viewBox="0 0 159.7 40.71">
  <defs>
    <style>
      .cls-1 {
        fill: #fff;
      }
    </style>
  </defs>
  <g>
    <path class="cls-1" d="M17.86,12.28c-.49-1.12-1.15-2.11-1.99-2.96-.84-.85-1.82-1.51-2.95-2-1.12-.49-2.33-.73-3.62-.73s-2.47,.24-3.6,.73c-1.12,.49-2.11,1.15-2.96,2-.85,.85-1.52,1.83-2.01,2.96-.5,1.13-.74,2.33-.74,3.62s.25,2.48,.74,3.61c.49,1.13,1.16,2.12,2.01,2.96,.85,.84,1.83,1.5,2.96,1.99,1.13,.49,2.33,.73,3.6,.73s2.5-.24,3.62-.73c1.13-.49,2.11-1.15,2.95-1.99,.84-.84,1.5-1.83,1.99-2.96,.49-1.13,.73-2.34,.73-3.61s-.24-2.49-.73-3.62ZM6.24,20.61c-1.25,0-2.27-1.02-2.27-2.27s1.02-2.27,2.27-2.27,2.27,1.02,2.27,2.27-1.02,2.27-2.27,2.27Zm.47-5.77l2.37-4.11,2.37,4.11H6.7Zm7.48,5.61h-4.29v-4.22h4.29v4.22Z"/>
    <path class="cls-1" d="M37.46,8.56c-.14-.36-.35-.68-.63-.98-.27-.29-.6-.53-.98-.71-.39-.17-.78-.26-1.18-.26-.4,0-.77,.06-1.13,.19-.36,.14-.68,.34-.96,.62-.29,.27-.51,.6-.68,.98l-3.16,6.85-3.12-6.87c-.18-.38-.42-.7-.7-.98-.29-.27-.61-.48-.96-.62-.36-.13-.74-.2-1.13-.19-.4,0-.78,.1-1.16,.26-.38,.18-.7,.42-.98,.71-.27,.29-.48,.62-.61,.98-.14,.37-.21,.75-.21,1.14s.09,.79,.27,1.16l5.4,11.32-2.58,5.58c-.18,.4-.29,.8-.33,1.19-.04,.39,0,.76,.1,1.11,.1,.35,.28,.67,.52,.94,.24,.28,.56,.5,.95,.67,.38,.18,.76,.27,1.16,.27s.77-.07,1.13-.2c.36-.14,.69-.34,.98-.62,.3-.27,.54-.6,.72-.98l9.19-19.26c.18-.39,.28-.79,.28-1.19,0-.4-.06-.78-.2-1.14Z"/>
    <path class="cls-1" d="M56.92,8.45c-.16-.36-.38-.68-.66-.96-.27-.27-.6-.49-.97-.64-.37-.15-.76-.23-1.16-.23s-.81,.08-1.17,.23c-.37,.16-.68,.37-.95,.64-.27,.27-.48,.59-.64,.96-.15,.37-.23,.75-.23,1.15v6.61c-.03,.83-.27,1.51-.72,2.03-.46,.52-1.09,.78-1.89,.78-.42,0-.79-.09-1.12-.28-.33-.19-.61-.44-.84-.74-.23-.31-.4-.65-.53-1.03-.12-.38-.19-.77-.19-1.16v-6.3c0-.42-.08-.8-.23-1.16-.16-.36-.37-.67-.64-.93-.27-.26-.59-.46-.96-.62-.37-.15-.75-.22-1.15-.22s-.81,.08-1.17,.22c-.37,.15-.68,.35-.96,.62-.27,.26-.49,.57-.64,.93-.16,.36-.23,.74-.23,1.16v6.34c0,1.21,.2,2.37,.6,3.47,.4,1.11,.95,2.08,1.65,2.92,.7,.84,1.54,1.51,2.52,2.01,.98,.5,2.04,.75,3.2,.75,.66,0,1.31-.12,1.94-.36,.63-.24,1.24-.57,1.83-.99,.26,.42,.6,.75,1.03,1,.42,.25,.91,.37,1.45,.37,.43,0,.83-.08,1.2-.23,.37-.16,.7-.37,.98-.63,.28-.27,.5-.58,.66-.94s.24-.75,.24-1.16V9.6c0-.4-.08-.79-.24-1.15Z"/>
    <path class="cls-1" d="M77.92,12.23c-.32-1.09-.78-2.06-1.39-2.9-.61-.84-1.35-1.51-2.25-2-.89-.5-1.92-.74-3.08-.74-.74,0-1.49,.15-2.24,.45-.75,.3-1.47,.7-2.16,1.21-.23-.49-.59-.9-1.06-1.21-.47-.31-1-.47-1.6-.47-.43,0-.83,.08-1.2,.23-.37,.15-.7,.37-.98,.64-.28,.27-.5,.59-.67,.96-.16,.36-.24,.75-.24,1.15v12.43c0,.42,.08,.8,.24,1.16,.16,.36,.38,.67,.65,.95,.27,.27,.6,.49,.96,.64,.37,.16,.77,.23,1.18,.23s.81-.08,1.17-.23c.36-.15,.68-.37,.95-.64,.27-.27,.48-.59,.63-.95,.16-.36,.23-.74,.23-1.16v-6.48c0-.43,.08-.83,.23-1.19,.15-.37,.37-.68,.64-.94,.27-.26,.59-.46,.96-.6,.37-.14,.75-.21,1.17-.21s.75,.09,1.02,.27c.28,.18,.51,.42,.69,.71,.18,.29,.32,.63,.4,1.01,.08,.38,.13,.75,.15,1.13v6.4c0,.42,.08,.8,.23,1.16,.16,.36,.37,.67,.65,.93,.27,.26,.6,.47,.96,.62,.37,.15,.76,.23,1.17,.23s.79-.08,1.15-.23c.37-.15,.68-.35,.96-.62,.27-.26,.49-.57,.66-.93,.16-.36,.24-.74,.24-1.16v-6.4c0-1.21-.16-2.36-.48-3.45Z"/>
    <path class="cls-1" d="M97.22,18.09c-.49-.43-.96-.7-1.41-.8-.45-.1-.87-.11-1.27,0-.4,.1-.77,.26-1.12,.49-.35,.23-.68,.46-.99,.69-.23,.17-.45,.3-.65,.38-.2,.09-.4,.15-.58,.19-.19,.04-.38,.06-.57,.06s-.38,0-.58-.02c-.42-.01-.8-.13-1.15-.34-.35-.21-.65-.47-.91-.78-.25-.31-.45-.64-.6-1-.14-.37-.21-.72-.21-1.06s.07-.69,.21-1.05c.14-.36,.34-.7,.6-1.02,.25-.31,.56-.57,.91-.78,.35-.21,.74-.33,1.15-.35,.4-.03,.78-.01,1.14,.04,.36,.05,.77,.24,1.24,.56,.31,.23,.64,.47,.99,.7,.35,.23,.73,.4,1.12,.5,.4,.1,.82,.09,1.27-.01,.45-.1,.92-.37,1.41-.8,.33-.29,.57-.62,.73-1,.16-.38,.24-.77,.22-1.18-.01-.41-.11-.82-.29-1.24-.18-.42-.45-.81-.8-1.17-.83-.83-1.8-1.46-2.92-1.89-1.11-.43-2.3-.64-3.56-.64-1.33,0-2.58,.24-3.75,.73-1.17,.49-2.19,1.16-3.05,2.01-.87,.85-1.55,1.85-2.06,3-.51,1.14-.76,2.38-.76,3.71,.01,1.31,.27,2.53,.78,3.65,.51,1.12,1.19,2.09,2.06,2.91,.87,.82,1.88,1.46,3.04,1.93,1.16,.47,2.41,.7,3.74,.7s2.45-.21,3.56-.64c1.11-.43,2.08-1.06,2.92-1.89,.35-.36,.62-.75,.79-1.16,.17-.41,.27-.82,.28-1.23,.01-.41-.06-.8-.21-1.18-.15-.38-.4-.71-.72-1Z"/>
    <path class="cls-1" d="M117.7,12.21c-.49-1.12-1.15-2.09-1.99-2.92-.84-.83-1.82-1.49-2.94-1.97-1.12-.48-2.32-.72-3.59-.72s-2.48,.24-3.6,.73c-1.13,.49-2.11,1.15-2.96,2s-1.52,1.83-2.01,2.96c-.49,1.13-.74,2.33-.74,3.62s.25,2.48,.74,3.61c.5,1.13,1.17,2.12,2.01,2.96,.85,.84,1.83,1.5,2.96,1.99,1.12,.49,2.33,.73,3.6,.73,.73,0,1.43-.1,2.1-.31,.67-.21,1.31-.5,1.92-.86,.26,.3,.58,.53,.94,.7,.37,.17,.78,.25,1.24,.25,.43,0,.83-.08,1.21-.24,.38-.16,.7-.38,.98-.66,.27-.28,.49-.61,.65-.98,.16-.37,.25-.77,.25-1.2v-6.11c-.03-1.26-.28-2.45-.77-3.57Zm-5.51,4.97c-.17,.39-.4,.73-.71,1.03-.3,.29-.65,.52-1.05,.69-.4,.17-.82,.25-1.26,.25s-.86-.08-1.25-.25c-.39-.17-.74-.4-1.04-.69-.3-.29-.54-.64-.71-1.03-.18-.39-.27-.82-.27-1.27s.09-.88,.27-1.27c.17-.39,.41-.73,.71-1.03,.3-.29,.64-.52,1.04-.69,.39-.17,.81-.25,1.25-.25s.86,.09,1.26,.25c.4,.17,.75,.4,1.05,.69,.3,.29,.54,.64,.71,1.03,.17,.39,.25,.81,.25,1.27s-.09,.88-.25,1.27Z"/>
    <path class="cls-1" d="M139.81,15.81s-.01-.07-.01-.11v-6.15c0-.42-.08-.8-.23-1.16-.16-.36-.37-.67-.64-.94-.27-.27-.6-.48-.96-.63-.37-.15-.76-.23-1.18-.23-.44,0-.85,.08-1.23,.24-.38,.16-.7,.39-.98,.69-.61-.3-1.25-.53-1.93-.69-.67-.16-1.38-.24-2.1-.24-1.27,0-2.47,.24-3.6,.73-1.12,.49-2.11,1.15-2.95,2-.85,.85-1.51,1.83-2.01,2.96-.49,1.13-.74,2.33-.74,3.62s.25,2.48,.74,3.61c.49,1.13,1.16,2.12,2.01,2.96,.85,.84,1.83,1.5,2.96,1.99,1.13,.49,2.33,.73,3.6,.73,.57,0,1.13-.05,1.67-.15,.54-.1,1.06-.25,1.57-.43v4c0,.51,.11,.97,.34,1.39,.23,.42,.53,.76,.9,1.02,.47,.35,1,.53,1.61,.55h.21c.39-.01,.75-.09,1.09-.23,.34-.13,.63-.33,.9-.57,.26-.24,.47-.52,.63-.85,.16-.33,.26-.68,.3-1.05,.01-.08,.02-.16,.03-.23,0-.08,0-.16,0-.23V15.9s0-.06,0-.09Zm-6.02,.51c-.05,.4-.17,.78-.36,1.13-.19,.35-.43,.65-.71,.9-.29,.25-.62,.45-.99,.6-.37,.14-.77,.21-1.18,.21-.44,0-.86-.08-1.25-.25-.39-.17-.74-.4-1.04-.69-.3-.29-.54-.64-.71-1.03-.18-.39-.26-.82-.26-1.27s.09-.88,.26-1.27c.18-.39,.41-.73,.71-1.03,.3-.29,.65-.52,1.04-.69,.39-.17,.81-.25,1.25-.25,.42,0,.81,.07,1.18,.21,.37,.14,.7,.34,.99,.6,.29,.25,.52,.56,.71,.91,.19,.35,.31,.73,.36,1.13v.8Z"/>
    <path class="cls-1" d="M149.49,1.81c-.15-.36-.37-.67-.64-.94-.27-.27-.59-.48-.96-.63-.37-.16-.75-.23-1.17-.23s-.81,.08-1.17,.23c-.37,.15-.68,.37-.96,.63-.27,.27-.49,.58-.64,.94-.16,.36-.23,.74-.23,1.16V22.01c0,.42,.08,.81,.23,1.17,.15,.36,.37,.68,.64,.94,.27,.27,.59,.48,.96,.62,.36,.15,.75,.23,1.17,.23s.81-.08,1.17-.23c.37-.15,.68-.36,.96-.62,.27-.27,.49-.58,.64-.94,.16-.37,.23-.75,.23-1.17V2.96c0-.42-.08-.8-.23-1.16Z"/>
    <path class="cls-1" d="M159.46,8.43c-.15-.37-.37-.68-.63-.96-.27-.27-.58-.49-.94-.64-.36-.15-.75-.23-1.16-.23s-.83,.08-1.21,.23c-.38,.16-.71,.37-.98,.64-.28,.27-.5,.59-.66,.96-.16,.36-.24,.75-.24,1.17v12.37c0,.42,.08,.81,.24,1.17,.16,.37,.38,.68,.66,.96,.28,.27,.6,.49,.98,.64,.37,.16,.76,.23,1.18,.23s.81-.08,1.17-.23c.37-.15,.68-.37,.96-.64,.27-.27,.49-.59,.64-.96,.16-.37,.23-.75,.23-1.17V9.6c0-.42-.08-.81-.23-1.17Z"/>
  </g>
  <g>
    <path class="cls-1" d="M73.12,36.1c.1-.24,.24-.44,.42-.62s.39-.32,.62-.42c.24-.1,.49-.15,.76-.15s.52,.05,.76,.15c.24,.1,.44,.24,.62,.42s.32,.38,.42,.62,.15,.49,.15,.76-.05,.52-.15,.76c-.1,.24-.24,.44-.42,.62s-.38,.32-.62,.42c-.24,.1-.49,.15-.76,.15s-.52-.05-.76-.15c-.24-.1-.45-.24-.62-.42s-.32-.38-.42-.62c-.1-.24-.15-.49-.15-.76s.05-.52,.15-.76Zm.57,1.28c.07,.16,.16,.3,.28,.42s.26,.22,.42,.29c.16,.07,.34,.11,.52,.11s.36-.04,.53-.11c.16-.07,.3-.17,.42-.29,.12-.12,.21-.26,.28-.42s.1-.33,.1-.52-.03-.36-.1-.52c-.07-.16-.16-.3-.28-.42-.12-.12-.26-.22-.42-.28-.16-.07-.34-.1-.53-.1s-.36,.03-.52,.1c-.16,.07-.3,.16-.42,.28-.12,.12-.22,.26-.28,.42-.07,.16-.1,.34-.1,.52s.03,.36,.1,.52Z"/>
    <path class="cls-1" d="M78.89,37.75l1.17-2.65c.04-.08,.09-.14,.17-.17s.16-.03,.24,0c.08,.04,.13,.09,.16,.17,.03,.08,.03,.16,0,.24l-2.09,4.67c-.04,.08-.1,.13-.17,.17s-.16,.03-.24,0c-.08-.04-.13-.1-.15-.17-.02-.08-.01-.15,.03-.23l.57-1.29-1.4-3.13s-.03-.08-.03-.12c0-.04,0-.08,.02-.12,.02-.04,.04-.07,.06-.1,.03-.03,.06-.06,.1-.07,.08-.04,.16-.04,.24,0,.08,.03,.13,.09,.17,.17l1.16,2.65Z"/>
    <path class="cls-1" d="M81.2,34.99c.06-.06,.13-.09,.22-.09s.16,.03,.22,.09c.06,.06,.09,.13,.09,.22v1.68c0,.4,.1,.71,.27,.93,.18,.22,.42,.33,.74,.33,.16,0,.3-.03,.44-.09,.14-.06,.25-.15,.35-.25,.1-.11,.18-.23,.24-.38,.06-.15,.09-.31,.1-.48v-1.73c0-.09,.03-.16,.09-.22,.06-.06,.13-.09,.22-.09s.16,.03,.22,.09c.06,.06,.09,.13,.09,.22v3.25c0,.08-.03,.16-.09,.22s-.14,.09-.22,.09-.16-.03-.22-.09c-.06-.06-.09-.13-.09-.22v-.31c-.16,.19-.34,.34-.55,.45s-.42,.17-.65,.17-.45-.05-.65-.14-.36-.22-.49-.39c-.14-.17-.24-.37-.32-.6-.07-.23-.11-.49-.11-.77v-1.67c0-.09,.03-.16,.09-.22Z"/>
    <path class="cls-1" d="M88.61,38.69c-.06,.06-.13,.09-.22,.09s-.16-.03-.22-.09c-.06-.06-.09-.13-.09-.22v-1.67c0-.2-.02-.38-.07-.54-.05-.16-.11-.29-.2-.4-.09-.11-.19-.19-.32-.25-.13-.06-.27-.09-.43-.09s-.3,.03-.44,.09c-.14,.06-.25,.15-.35,.25-.1,.11-.18,.24-.24,.38-.06,.15-.1,.3-.1,.47v1.74c0,.08-.03,.16-.09,.22s-.13,.09-.22,.09-.16-.03-.22-.09c-.06-.06-.09-.13-.09-.22v-3.25c0-.09,.03-.16,.09-.22,.06-.06,.13-.09,.22-.09s.16,.03,.22,.09c.06,.06,.09,.13,.09,.22v.31c.16-.19,.34-.34,.55-.45,.21-.11,.43-.17,.66-.17s.45,.05,.64,.14c.19,.09,.36,.22,.49,.38,.14,.17,.24,.36,.32,.59,.08,.23,.11,.49,.11,.77v1.68c0,.09-.03,.16-.09,.22Z"/>
    <path class="cls-1" d="M89.87,36.86h0c0,.18,.03,.34,.1,.5,.06,.16,.15,.3,.27,.42s.25,.22,.4,.3c.16,.08,.32,.11,.5,.12,.17,0,.33-.02,.48-.07,.15-.05,.29-.13,.43-.25,.03-.02,.07-.05,.1-.07s.07-.04,.11-.05c.04,0,.08,0,.13,0,.05,0,.09,.04,.14,.08,.07,.06,.1,.13,.1,.22,0,.09-.04,.17-.11,.24-.16,.17-.36,.3-.6,.39s-.48,.13-.73,.13c-.27,0-.52-.05-.76-.15-.24-.1-.44-.24-.62-.41s-.32-.38-.42-.61-.15-.49-.15-.76v-.02s0,0,0,0h0c0-.27,.05-.53,.15-.77,.1-.24,.24-.44,.42-.62s.38-.32,.62-.42c.24-.1,.49-.15,.76-.15,.25,0,.5,.04,.73,.13,.23,.09,.43,.22,.59,.39,.07,.07,.11,.16,.11,.25,0,.09-.03,.17-.1,.23-.05,.04-.1,.07-.14,.08-.05,0-.09,0-.13,0-.04,0-.08-.03-.11-.05s-.07-.05-.1-.07c-.13-.11-.27-.2-.42-.25-.15-.05-.31-.08-.48-.07-.18,0-.34,.04-.5,.11-.15,.07-.29,.17-.4,.3s-.21,.26-.27,.42c-.07,.16-.1,.32-.1,.5,0,0,0,0,0,.01Z"/>
    <path class="cls-1" d="M92.99,36.87c0-.27,.05-.52,.15-.76s.24-.44,.42-.62c.18-.18,.39-.32,.62-.42,.24-.1,.49-.15,.76-.15s.52,.05,.75,.15c.24,.1,.44,.24,.62,.41,.18,.17,.32,.38,.42,.61,.1,.23,.16,.49,.16,.75v1.61c0,.09-.03,.16-.09,.23-.06,.06-.14,.09-.23,.09s-.16-.03-.22-.09c-.06-.06-.08-.14-.08-.22v-.2c-.18,.17-.38,.31-.61,.41-.23,.1-.47,.16-.73,.16s-.52-.05-.76-.15c-.24-.1-.45-.24-.62-.42s-.32-.38-.42-.62-.15-.49-.15-.76Zm.62,0c0,.18,.03,.36,.1,.52,.07,.16,.16,.3,.29,.43,.12,.12,.26,.22,.43,.29s.34,.11,.52,.11,.36-.04,.53-.11,.3-.17,.43-.29c.12-.12,.21-.26,.28-.43,.07-.16,.1-.33,.1-.52s-.03-.36-.1-.52c-.07-.16-.16-.3-.28-.43s-.26-.22-.43-.29c-.16-.07-.34-.1-.53-.1s-.36,.04-.52,.1c-.16,.07-.3,.17-.43,.29-.12,.12-.22,.26-.29,.43s-.1,.34-.1,.52Z"/>
    <path class="cls-1" d="M101.38,36.75s0,.03,0,.04c0,.02,0,.03,0,.04v3.01c0,.05-.01,.11-.04,.16-.03,.05-.06,.09-.1,.11-.05,.04-.11,.05-.17,.05-.05,0-.1-.01-.14-.03-.04-.02-.07-.05-.1-.09-.04-.05-.06-.11-.06-.18v-1.56c-.17,.16-.38,.29-.6,.38-.23,.09-.47,.14-.73,.14s-.52-.05-.76-.15c-.24-.1-.45-.24-.62-.42s-.32-.38-.42-.62-.15-.49-.15-.76,.05-.52,.15-.76,.24-.44,.42-.62c.18-.18,.39-.32,.62-.42,.24-.1,.49-.15,.76-.15s.5,.05,.73,.14c.23,.09,.43,.22,.6,.38v-.22c0-.09,.03-.16,.09-.22s.13-.09,.22-.09,.16,.03,.22,.09c.06,.06,.09,.13,.09,.22v1.53Zm-3.29,.12c0,.18,.03,.36,.1,.52,.07,.16,.16,.3,.29,.43,.12,.12,.26,.22,.43,.29s.34,.11,.52,.11,.34-.03,.5-.1c.16-.06,.29-.15,.41-.26,.12-.11,.22-.24,.29-.39,.07-.15,.12-.31,.13-.48v-.22c-.01-.17-.06-.33-.13-.48-.07-.15-.17-.28-.29-.39-.12-.11-.26-.2-.41-.26-.16-.06-.32-.09-.5-.09s-.36,.04-.52,.1c-.16,.07-.3,.17-.43,.29-.12,.12-.22,.26-.29,.43s-.1,.34-.1,.52Z"/>
    <path class="cls-1" d="M102.82,36.9c-.15-.06-.28-.14-.39-.22s-.21-.19-.27-.3c-.07-.11-.1-.25-.1-.41,0-.17,.04-.32,.11-.45,.07-.13,.17-.24,.29-.34s.26-.16,.42-.21c.16-.05,.32-.07,.48-.07,.12,0,.24,.01,.35,.03,.12,.02,.23,.06,.33,.1,.1,.05,.2,.11,.28,.18,.08,.07,.15,.15,.2,.25,.03,.06,.04,.12,.03,.17s-.03,.1-.07,.14c-.04,.04-.09,.07-.14,.08-.06,.02-.11,0-.17-.02-.11-.12-.23-.21-.35-.28-.12-.07-.26-.11-.43-.11-.09,0-.18,0-.26,.03-.09,.02-.16,.05-.23,.09-.07,.04-.12,.09-.16,.16-.04,.06-.06,.14-.06,.23s.02,.16,.06,.22c.04,.06,.09,.11,.16,.16,.07,.05,.15,.08,.24,.12,.09,.03,.19,.07,.3,.1,.17,.05,.34,.11,.49,.17,.15,.06,.29,.13,.41,.22,.12,.09,.21,.19,.28,.31,.07,.12,.1,.26,.1,.44,0,.16-.03,.31-.1,.45-.07,.14-.16,.26-.28,.36-.12,.1-.26,.18-.43,.24-.16,.06-.34,.09-.53,.09-.14,0-.27-.01-.41-.04-.14-.03-.27-.07-.39-.13-.12-.06-.23-.13-.33-.21-.1-.08-.18-.19-.24-.3-.05-.09-.06-.17-.04-.24s.06-.12,.13-.16c.06-.04,.13-.05,.21-.03,.08,.01,.15,.06,.22,.14,.09,.15,.21,.26,.34,.33,.14,.07,.3,.1,.51,.1,.1,0,.19-.01,.28-.04,.09-.03,.17-.06,.24-.11s.13-.11,.17-.17c.04-.07,.06-.15,.06-.23,0-.1-.02-.18-.07-.24-.05-.07-.11-.13-.19-.17-.08-.05-.17-.09-.27-.12-.1-.03-.2-.07-.31-.1-.16-.05-.31-.11-.45-.17Z"/>
    <path class="cls-1" d="M105.95,38.46c0,.09-.03,.16-.09,.22s-.13,.09-.22,.09-.16-.03-.22-.09c-.06-.06-.09-.13-.09-.22v-3.24c0-.09,.03-.16,.09-.22,.06-.06,.14-.09,.22-.09s.16,.03,.22,.09c.06,.06,.09,.13,.09,.22v3.24Z"/>
    <path class="cls-1" d="M109.88,34.91s.06,0,.08,.01c.01,0,.03,0,.05,.02l.04,.02,.04,.03s.07,.08,.08,.13c.01,.05,.01,.1,0,.15,0,0,0,.01,0,.02h0s-.02,.06-.04,.09c0,0-.01,.02-.02,.02,0,0-.01,.02-.02,.02l-2.6,2.74h2.46c.09,0,.16,.03,.22,.08s.09,.12,.09,.21-.03,.16-.09,.22-.13,.09-.22,.09h-3.1c-.06,0-.11-.01-.15-.04-.05-.03-.08-.06-.11-.11-.04-.05-.05-.12-.05-.18,0-.07,.04-.13,.09-.18l2.59-2.74h-2.34c-.09,0-.16-.03-.22-.09-.06-.06-.09-.13-.09-.22s.03-.16,.09-.22c.06-.06,.13-.09,.22-.09h2.99Z"/>
    <path class="cls-1" d="M112.75,34.99c.06-.06,.13-.09,.22-.09s.16,.03,.22,.09c.06,.06,.09,.13,.09,.22v1.68c0,.4,.1,.71,.27,.93,.18,.22,.42,.33,.74,.33,.16,0,.3-.03,.44-.09,.14-.06,.25-.15,.35-.25,.1-.11,.18-.23,.24-.38,.06-.15,.09-.31,.1-.48v-1.73c0-.09,.03-.16,.09-.22,.06-.06,.13-.09,.22-.09s.16,.03,.22,.09c.06,.06,.09,.13,.09,.22v3.25c0,.08-.03,.16-.09,.22s-.14,.09-.22,.09-.16-.03-.22-.09c-.06-.06-.09-.13-.09-.22v-.31c-.16,.19-.34,.34-.55,.45s-.42,.17-.65,.17-.45-.05-.65-.14-.36-.22-.49-.39c-.14-.17-.24-.37-.32-.6-.07-.23-.11-.49-.11-.77v-1.67c0-.09,.03-.16,.09-.22Z"/>
    <path class="cls-1" d="M117.47,36.9c-.15-.06-.28-.14-.39-.22s-.21-.19-.27-.3c-.07-.11-.1-.25-.1-.41,0-.17,.04-.32,.11-.45,.07-.13,.17-.24,.29-.34s.26-.16,.42-.21c.16-.05,.32-.07,.48-.07,.12,0,.24,.01,.35,.03,.12,.02,.23,.06,.33,.1,.1,.05,.2,.11,.28,.18,.08,.07,.15,.15,.2,.25,.03,.06,.04,.12,.03,.17s-.03,.1-.07,.14c-.04,.04-.09,.07-.14,.08-.06,.02-.11,0-.17-.02-.11-.12-.23-.21-.35-.28-.12-.07-.26-.11-.43-.11-.09,0-.18,0-.26,.03-.09,.02-.16,.05-.23,.09-.07,.04-.12,.09-.16,.16-.04,.06-.06,.14-.06,.23s.02,.16,.06,.22c.04,.06,.09,.11,.16,.16,.07,.05,.15,.08,.24,.12,.09,.03,.19,.07,.3,.1,.17,.05,.34,.11,.49,.17,.15,.06,.29,.13,.41,.22,.12,.09,.21,.19,.28,.31,.07,.12,.1,.26,.1,.44,0,.16-.03,.31-.1,.45-.07,.14-.16,.26-.28,.36-.12,.1-.26,.18-.43,.24-.16,.06-.34,.09-.53,.09-.14,0-.27-.01-.41-.04-.14-.03-.27-.07-.39-.13-.12-.06-.23-.13-.33-.21-.1-.08-.18-.19-.24-.3-.05-.09-.06-.17-.04-.24s.06-.12,.13-.16c.06-.04,.13-.05,.21-.03,.08,.01,.15,.06,.22,.14,.09,.15,.21,.26,.34,.33,.14,.07,.3,.1,.51,.1,.1,0,.19-.01,.28-.04,.09-.03,.17-.06,.24-.11s.13-.11,.17-.17c.04-.07,.06-.15,.06-.23,0-.1-.02-.18-.07-.24-.05-.07-.11-.13-.19-.17-.08-.05-.17-.09-.27-.12-.1-.03-.2-.07-.31-.1-.16-.05-.31-.11-.45-.17Zm.78,2.16c.1,.01,.19,.04,.28,.09,.08,.05,.16,.11,.22,.18,.06,.07,.11,.16,.15,.25,.04,.09,.05,.19,.05,.3,0,.11-.02,.22-.07,.32-.04,.1-.1,.19-.18,.26-.08,.07-.16,.13-.26,.18-.1,.04-.21,.07-.32,.07s-.22-.02-.32-.07c-.1-.04-.19-.1-.26-.18-.08-.07-.13-.16-.18-.26-.04-.1-.07-.21-.07-.32,0-.06,.02-.11,.06-.15,.04-.04,.09-.06,.15-.06,.05,0,.1,.02,.13,.06,.04,.04,.06,.09,.06,.14,0,.06,.01,.11,.03,.17,.02,.05,.05,.1,.09,.14,.04,.04,.09,.07,.14,.09s.11,.03,.17,.03,.12-.01,.17-.03,.1-.05,.14-.09c.04-.04,.07-.08,.09-.14,.02-.05,.03-.11,.03-.17,0-.13-.04-.23-.13-.31-.09-.08-.21-.12-.35-.12-.08,0-.14-.02-.17-.05-.04-.03-.05-.07-.05-.12v-.73s.02-.09,.07-.12c.04-.03,.09-.05,.14-.05,.05,0,.09,.02,.14,.05s.07,.07,.07,.12v.51Z"/>
    <path class="cls-1" d="M119.75,36.87c0-.27,.05-.52,.15-.76s.24-.44,.42-.62c.18-.18,.39-.32,.62-.42,.24-.1,.49-.15,.76-.15s.52,.05,.75,.15c.24,.1,.44,.24,.62,.41,.18,.17,.32,.38,.42,.61,.1,.23,.16,.49,.16,.75v1.61c0,.09-.03,.16-.09,.23-.06,.06-.14,.09-.23,.09s-.16-.03-.22-.09c-.06-.06-.08-.14-.08-.22v-.2c-.18,.17-.38,.31-.61,.41-.23,.1-.47,.16-.73,.16s-.52-.05-.76-.15c-.24-.1-.45-.24-.62-.42s-.32-.38-.42-.62-.15-.49-.15-.76Zm.62,0c0,.18,.03,.36,.1,.52,.07,.16,.16,.3,.29,.43,.12,.12,.26,.22,.43,.29s.34,.11,.52,.11,.36-.04,.53-.11,.3-.17,.43-.29c.12-.12,.21-.26,.28-.43,.07-.16,.1-.33,.1-.52s-.03-.36-.1-.52c-.07-.16-.16-.3-.28-.43s-.26-.22-.43-.29c-.16-.07-.34-.1-.53-.1s-.36,.04-.52,.1c-.16,.07-.3,.17-.43,.29-.12,.12-.22,.26-.29,.43s-.1,.34-.1,.52Z"/>
    <path class="cls-1" d="M128.14,36.75s0,.03,0,.04c0,.02,0,.03,0,.04v3.01c0,.05-.01,.11-.04,.16-.03,.05-.06,.09-.1,.11-.05,.04-.11,.05-.17,.05-.05,0-.1-.01-.14-.03-.04-.02-.07-.05-.1-.09-.04-.05-.06-.11-.06-.18v-1.56c-.17,.16-.38,.29-.6,.38-.23,.09-.47,.14-.73,.14s-.52-.05-.76-.15c-.24-.1-.45-.24-.62-.42s-.32-.38-.42-.62-.15-.49-.15-.76,.05-.52,.15-.76,.24-.44,.42-.62c.18-.18,.39-.32,.62-.42,.24-.1,.49-.15,.76-.15s.5,.05,.73,.14c.23,.09,.43,.22,.6,.38v-.22c0-.09,.03-.16,.09-.22s.13-.09,.22-.09,.16,.03,.22,.09c.06,.06,.09,.13,.09,.22v1.53Zm-3.29,.12c0,.18,.03,.36,.1,.52,.07,.16,.16,.3,.29,.43,.12,.12,.26,.22,.43,.29s.34,.11,.52,.11,.34-.03,.5-.1c.16-.06,.29-.15,.41-.26,.12-.11,.22-.24,.29-.39,.07-.15,.12-.31,.13-.48v-.22c-.01-.17-.06-.33-.13-.48-.07-.15-.17-.28-.29-.39-.12-.11-.26-.2-.41-.26-.16-.06-.32-.09-.5-.09s-.36,.04-.52,.1c-.16,.07-.3,.17-.43,.29-.12,.12-.22,.26-.29,.43s-.1,.34-.1,.52Z"/>
    <path class="cls-1" d="M134.48,36.75s0,.03,0,.04c0,.02,0,.03,0,.04v3.01c0,.05-.01,.11-.04,.16-.03,.05-.06,.09-.1,.11-.05,.04-.11,.05-.17,.05-.05,0-.1-.01-.14-.03-.04-.02-.07-.05-.1-.09-.04-.05-.06-.11-.06-.18v-1.56c-.17,.16-.38,.29-.6,.38-.23,.09-.47,.14-.73,.14s-.52-.05-.76-.15c-.24-.1-.45-.24-.62-.42s-.32-.38-.42-.62-.15-.49-.15-.76,.05-.52,.15-.76,.24-.44,.42-.62c.18-.18,.39-.32,.62-.42,.24-.1,.49-.15,.76-.15s.5,.05,.73,.14c.23,.09,.43,.22,.6,.38v-.22c0-.09,.03-.16,.09-.22s.13-.09,.22-.09,.16,.03,.22,.09c.06,.06,.09,.13,.09,.22v1.53Zm-3.29,.12c0,.18,.03,.36,.1,.52,.07,.16,.16,.3,.29,.43,.12,.12,.26,.22,.43,.29s.34,.11,.52,.11,.34-.03,.5-.1c.16-.06,.29-.15,.41-.26,.12-.11,.22-.24,.29-.39,.07-.15,.12-.31,.13-.48v-.22c-.01-.17-.06-.33-.13-.48-.07-.15-.17-.28-.29-.39-.12-.11-.26-.2-.41-.26-.16-.06-.32-.09-.5-.09s-.36,.04-.52,.1c-.16,.07-.3,.17-.43,.29-.12,.12-.22,.26-.29,.43s-.1,.34-.1,.52Z"/>
    <path class="cls-1" d="M135.06,36.87c0-.27,.05-.52,.15-.76s.24-.44,.42-.62c.18-.18,.39-.32,.62-.42,.24-.1,.49-.15,.76-.15s.52,.05,.75,.15c.24,.1,.44,.24,.62,.41,.18,.17,.32,.38,.42,.61,.1,.23,.16,.49,.16,.75v1.61c0,.09-.03,.16-.09,.23-.06,.06-.14,.09-.23,.09s-.16-.03-.22-.09c-.06-.06-.08-.14-.08-.22v-.2c-.18,.17-.38,.31-.61,.41-.23,.1-.47,.16-.73,.16s-.52-.05-.76-.15c-.24-.1-.45-.24-.62-.42s-.32-.38-.42-.62-.15-.49-.15-.76Zm.62,0c0,.18,.03,.36,.1,.52,.07,.16,.16,.3,.29,.43,.12,.12,.26,.22,.43,.29s.34,.11,.52,.11,.36-.04,.53-.11,.3-.17,.43-.29c.12-.12,.21-.26,.28-.43,.07-.16,.1-.33,.1-.52s-.03-.36-.1-.52c-.07-.16-.16-.3-.28-.43s-.26-.22-.43-.29c-.16-.07-.34-.1-.53-.1s-.36,.04-.52,.1c-.16,.07-.3,.17-.43,.29-.12,.12-.22,.26-.29,.43s-.1,.34-.1,.52Z"/>
    <path class="cls-1" d="M140.41,38.47c0,.08-.03,.16-.09,.22s-.13,.09-.22,.09-.16-.03-.22-.09-.09-.13-.09-.22v-4.64c0-.09,.03-.16,.09-.22,.06-.06,.13-.09,.22-.09s.16,.03,.22,.09c.06,.06,.09,.13,.09,.22v4.64Z"/>
    <path class="cls-1" d="M146.25,38.68c-.06,.06-.13,.09-.21,.09s-.16-.03-.22-.09c-.06-.06-.09-.13-.09-.22v-2.19c0-.11-.02-.21-.07-.3-.04-.09-.1-.17-.17-.24-.07-.07-.15-.12-.24-.16-.09-.04-.19-.06-.3-.06s-.22,.02-.32,.06c-.1,.04-.19,.1-.28,.17-.08,.07-.15,.15-.19,.25s-.07,.19-.08,.3v2.17c0,.08-.03,.16-.09,.22-.06,.06-.13,.09-.21,.09s-.16-.03-.22-.09-.09-.13-.09-.22v-2.19c0-.11-.03-.21-.07-.3-.04-.09-.09-.17-.16-.24-.07-.07-.15-.12-.24-.16-.09-.04-.19-.06-.3-.06s-.21,.02-.31,.06c-.1,.04-.19,.09-.27,.16-.08,.07-.15,.15-.19,.24-.05,.09-.08,.19-.08,.29v2.19c0,.08-.03,.16-.09,.22s-.13,.09-.22,.09-.16-.03-.22-.09c-.06-.06-.09-.13-.09-.22v-3.24c0-.09,.03-.16,.09-.22,.06-.06,.13-.09,.22-.09s.16,.03,.22,.09c.06,.06,.09,.13,.09,.22v.12c.12-.13,.25-.23,.4-.31,.15-.08,.32-.12,.5-.12,.23,0,.44,.05,.62,.15,.18,.1,.33,.23,.45,.4,.15-.17,.33-.3,.54-.4,.21-.1,.43-.15,.65-.15,.19,0,.37,.04,.53,.11s.3,.17,.42,.29c.12,.12,.21,.27,.28,.44,.07,.17,.1,.34,.11,.53v2.19c0,.08-.03,.16-.09,.22Z"/>
    <path class="cls-1" d="M146.87,36.87c0-.27,.05-.52,.15-.76s.24-.44,.42-.62c.18-.18,.39-.32,.62-.42,.24-.1,.49-.15,.76-.15s.52,.05,.75,.15c.24,.1,.44,.24,.62,.41,.18,.17,.32,.38,.42,.61,.1,.23,.16,.49,.16,.75v1.61c0,.09-.03,.16-.09,.23-.06,.06-.14,.09-.23,.09s-.16-.03-.22-.09c-.06-.06-.08-.14-.08-.22v-.2c-.18,.17-.38,.31-.61,.41-.23,.1-.47,.16-.73,.16s-.52-.05-.76-.15c-.24-.1-.45-.24-.62-.42s-.32-.38-.42-.62-.15-.49-.15-.76Zm.62,0c0,.18,.03,.36,.1,.52,.07,.16,.16,.3,.29,.43,.12,.12,.26,.22,.43,.29s.34,.11,.52,.11,.36-.04,.53-.11,.3-.17,.43-.29c.12-.12,.21-.26,.28-.43,.07-.16,.1-.33,.1-.52s-.03-.36-.1-.52c-.07-.16-.16-.3-.28-.43s-.26-.22-.43-.29c-.16-.07-.34-.1-.53-.1s-.36,.04-.52,.1c-.16,.07-.3,.17-.43,.29-.12,.12-.22,.26-.29,.43s-.1,.34-.1,.52Z"/>
    <path class="cls-1" d="M152.21,36.9c-.15-.06-.28-.14-.39-.22s-.21-.19-.27-.3c-.07-.11-.1-.25-.1-.41,0-.17,.04-.32,.11-.45,.07-.13,.17-.24,.29-.34s.26-.16,.42-.21c.16-.05,.32-.07,.48-.07,.12,0,.24,.01,.35,.03,.12,.02,.23,.06,.33,.1,.1,.05,.2,.11,.28,.18,.08,.07,.15,.15,.2,.25,.03,.06,.04,.12,.03,.17s-.03,.1-.07,.14c-.04,.04-.09,.07-.14,.08-.06,.02-.11,0-.17-.02-.11-.12-.23-.21-.35-.28-.12-.07-.26-.11-.43-.11-.09,0-.18,0-.26,.03-.09,.02-.16,.05-.23,.09-.07,.04-.12,.09-.16,.16-.04,.06-.06,.14-.06,.23s.02,.16,.06,.22c.04,.06,.09,.11,.16,.16,.07,.05,.15,.08,.24,.12,.09,.03,.19,.07,.3,.1,.17,.05,.34,.11,.49,.17,.15,.06,.29,.13,.41,.22,.12,.09,.21,.19,.28,.31,.07,.12,.1,.26,.1,.44,0,.16-.03,.31-.1,.45-.07,.14-.16,.26-.28,.36-.12,.1-.26,.18-.43,.24-.16,.06-.34,.09-.53,.09-.14,0-.27-.01-.41-.04-.14-.03-.27-.07-.39-.13-.12-.06-.23-.13-.33-.21-.1-.08-.18-.19-.24-.3-.05-.09-.06-.17-.04-.24s.06-.12,.13-.16c.06-.04,.13-.05,.21-.03,.08,.01,.15,.06,.22,.14,.09,.15,.21,.26,.34,.33,.14,.07,.3,.1,.51,.1,.1,0,.19-.01,.28-.04,.09-.03,.17-.06,.24-.11s.13-.11,.17-.17c.04-.07,.06-.15,.06-.23,0-.1-.02-.18-.07-.24-.05-.07-.11-.13-.19-.17-.08-.05-.17-.09-.27-.12-.1-.03-.2-.07-.31-.1-.16-.05-.31-.11-.45-.17Z"/>
    <path class="cls-1" d="M155.35,38.46c0,.09-.03,.16-.09,.22s-.13,.09-.22,.09-.16-.03-.22-.09c-.06-.06-.09-.13-.09-.22v-3.24c0-.09,.03-.16,.09-.22,.06-.06,.14-.09,.22-.09s.16,.03,.22,.09c.06,.06,.09,.13,.09,.22v3.24Z"/>
    <path class="cls-1" d="M159.46,38.69c-.06,.06-.13,.09-.22,.09s-.16-.03-.22-.09c-.06-.06-.09-.13-.09-.22v-1.67c0-.2-.02-.38-.07-.54-.05-.16-.11-.29-.2-.4-.09-.11-.19-.19-.32-.25-.13-.06-.27-.09-.43-.09s-.3,.03-.44,.09c-.14,.06-.25,.15-.35,.25-.1,.11-.18,.24-.24,.38-.06,.15-.1,.3-.1,.47v1.74c0,.08-.03,.16-.09,.22s-.13,.09-.22,.09-.16-.03-.22-.09c-.06-.06-.09-.13-.09-.22v-3.25c0-.09,.03-.16,.09-.22,.06-.06,.13-.09,.22-.09s.16,.03,.22,.09c.06,.06,.09,.13,.09,.22v.31c.16-.19,.34-.34,.55-.45,.21-.11,.43-.17,.66-.17s.45,.05,.64,.14c.19,.09,.36,.22,.49,.38,.14,.17,.24,.36,.32,.59,.08,.23,.11,.49,.11,.77v1.68c0,.09-.03,.16-.09,.22Z"/>
  </g>
</svg>