<?xml version="1.0" encoding="UTF-8"?>
<svg id="Layer_1" data-name="Layer 1" xmlns="http://www.w3.org/2000/svg" viewBox="0 0 176.32 95.52">
  <defs>
    <style>
      .cls-1 {
        letter-spacing: -.14em;
      }

      .cls-2 {
        fill: #f46d25;
      }

      .cls-3, .cls-4, .cls-5 {
        fill: #fff;
      }

      .cls-6 {
        letter-spacing: -.02em;
      }

      .cls-4 {
        font-size: 27.56px;
      }

      .cls-4, .cls-5 {
        font-family: VisbyCF-ExtraBold, 'Visby CF';
      }

      .cls-5 {
        font-size: 33.58px;
      }
    </style>
  </defs>
  <rect class="cls-2" width="176.32" height="95.52" rx="13.79" ry="13.79"/>
  <text class="cls-4" transform="translate(100.65 35.6)"><tspan x="0" y="0">0-2</tspan></text>
  <text class="cls-5" transform="translate(95.05 75.61)"><tspan class="cls-1" x="0" y="0">Y</tspan><tspan class="cls-6" x="18.97" y="0">A</tspan><tspan x="42.48" y="0">Ş</tspan></text>
  <path class="cls-3" d="M33.39,20.13c2.14,2.15,4.28,4.29,6.42,6.45,.18,.18,.27,.18,.44,0,3.54-3.54,7.09-7.07,10.64-10.61,.28-.28,.59-.4,.98-.4,5.74,.01,11.48,.02,17.22,.03,.44,0,.81,.12,1.04,.52,.21,.36,.19,.72-.02,1.07-.08,.13-.19,.23-.3,.34-3.76,3.75-7.52,7.5-11.29,11.24-.2,.2-.21,.3,0,.51,3.28,3.27,6.54,6.56,9.82,9.84,.3,.3,.44,.63,.44,1.06-.02,5.72-.02,11.44-.03,17.16,0,.65-.27,1.05-.8,1.17-.42,.09-.75-.05-1.05-.35-1.97-1.98-3.94-3.96-5.92-5.94-1.57-1.58-3.14-3.15-4.71-4.73-.17-.18-.26-.19-.44,0-1.99,2-3.98,3.98-5.98,5.97-.15,.15-.2,.3-.2,.51,0,7.41-.02,14.81-.03,22.22,0,.42-.08,.79-.44,1.05-.22,.16-.47,.2-.73,.19-1.28,0-2.56,0-3.84,0-.79,0-1.19-.4-1.18-1.19,0-5.55,.02-11.09,.04-16.64,0-.3-.08-.36-.37-.36-5.6,0-11.2-.01-16.8-.02-.44,0-.81-.1-1.05-.49-.27-.44-.19-.93,.22-1.34,1.57-1.56,3.14-3.13,4.7-4.69,2.47-2.47,4.95-4.93,7.43-7.39,.19-.19,.18-.28,0-.47-4-4.01-8-8.02-12.01-12.03-.32-.32-.46-.67-.46-1.12,.02-5.71,.03-11.42,.03-17.12,0-.37,.08-.7,.37-.95,.43-.36,1.02-.31,1.45,.12,1.92,1.92,3.84,3.85,5.76,5.78,.22,.22,.44,.44,.66,.66Zm11.38,15.19c-.35,.64-.35,1.29,0,1.93,.46,.85,1.39,1.27,2.3,1.04,.91-.23,1.56-1.07,1.56-2.01,0-.94-.64-1.75-1.55-1.98-.94-.24-1.85,.16-2.31,1.02Zm-16.13,21.78c.15,0,.26,0,.36,0,4.42,0,8.83,.01,13.25,.03,.3,0,.34-.09,.34-.35,0-4.42,0-8.83,.02-13.25,0-.1,0-.2-.01-.34-4.66,4.64-9.28,9.25-13.95,13.91Zm15.98-1.43c.11-.07,.13-.08,.14-.09,3.46-3.45,6.93-6.91,10.4-10.35,.15-.15,.12-.22-.01-.35-1.83-1.82-3.65-3.64-5.47-5.47-.13-.13-.19-.16-.36-.02-.9,.79-1.97,1.18-3.15,.99-.55-.09-.87,.06-1.21,.44-.18,.21-.28,.39-.28,.67,0,4.59,0,9.18-.02,13.77,0,.12-.02,.23-.05,.42Zm-6.35-24.85c-.45-.82-.44-1.6,.11-2.34,.15-.21,.14-.29-.03-.46-3.63-3.63-7.26-7.27-10.88-10.91l-.2-.2c-.08,.09-.05,.17-.05,.24,0,4.47-.01,8.94-.03,13.41,0,.25,.07,.29,.31,.29,3.49,0,6.99,0,10.48,.01,.09,0,.19,.03,.3-.04Zm16,10.12s-.01,.07-.02,.11c.86,.86,1.72,1.72,2.57,2.58,.47,.47,.66,1.05,.55,1.71-.03,.21,.03,.33,.17,.47,2.97,2.97,5.93,5.95,8.9,8.92,.06,.06,.1,.16,.26,.16-.01-.1-.03-.2-.03-.29,0-4.42,.01-8.83,.03-13.25,0-.28-.07-.35-.35-.35-3.94,0-7.89,0-11.83-.02-.08,0-.17-.03-.25-.05Zm10.96-1.99c-.07-.09-.1-.12-.12-.15-3.44-3.45-6.87-6.9-10.31-10.35-.17-.17-.26-.13-.4,.02-1.57,1.58-3.14,3.15-4.71,4.72-.13,.13-.16,.2-.02,.36,.88,1.02,1.2,2.21,.95,3.54-.04,.21,0,.33,.15,.47,.39,.37,.77,.75,1.14,1.14,.15,.16,.31,.22,.53,.22,3.29,0,6.58,0,9.86,.01,.96,0,1.91,0,2.94,.01Zm-12.55-11.79s.08,.01,.11,.02c.12-.12,.24-.24,.36-.36,.74-.72,1.81-.83,2.65-.23,.29,.2,.53,.47,.77,.73,.18,.2,.28,.2,.47,0,3.14-3.15,6.3-6.29,9.45-9.43,.06-.06,.13-.13,.23-.22-.1,0-.14-.01-.18-.01-4.51,0-9.03-.01-13.54-.03-.25,0-.24,.11-.24,.28,0,3.01,0,6.02-.02,9.03,0,.07-.04,.15-.05,.22Zm-24.06,5.75c.48,.48,.9,.9,1.31,1.32,3.04,3.05,6.08,6.1,9.12,9.16,.14,.14,.22,.2,.4,.03,1.34-1.35,2.69-2.69,4.04-4.03,.12-.12,.13-.19,.01-.33-.89-1.03-1.22-2.23-.95-3.57,.04-.2,0-.31-.14-.45-.64-.62-1.27-1.26-1.89-1.9-.15-.15-.29-.21-.5-.21-2.55,0-5.09,0-7.64,0-1.22,0-2.45,0-3.76-.01Zm22.13-13.74s-.08-.01-.12-.02c-.03,.03-.06,.05-.09,.08-3.46,3.44-6.91,6.89-10.37,10.33-.15,.15-.13,.22,0,.35,1.11,1.1,2.21,2.2,3.31,3.3,.12,.12,.19,.14,.33,.02,1.04-.9,2.24-1.22,3.6-.95,.17,.04,.27,0,.39-.12,.88-.88,1.76-1.77,2.65-2.64,.15-.15,.21-.29,.21-.5,0-3.18,0-6.36,.01-9.54,0-.1,.05-.2,.07-.31Zm-3.14,36.62s-.07-.02-.1-.02c-.6,.6-1.19,1.2-1.8,1.79-.15,.15-.21,.3-.21,.51,0,2.24,0,4.47,0,6.71,0,3.42,0,6.84-.02,10.25,0,.24,.04,.34,.3,.32,.47-.02,.95-.02,1.42,0,.27,.01,.35-.05,.35-.34,0-6.3,.01-12.6,.03-18.9,0-.11,.03-.21,.04-.32Z"/>
</svg>