<?xml version="1.0" encoding="UTF-8"?>
<svg id="Layer_1" data-name="Layer 1" xmlns="http://www.w3.org/2000/svg" viewBox="0 0 176.32 95.52">
  <defs>
    <style>
      .cls-1 {
        letter-spacing: -.14em;
      }

      .cls-2 {
        fill: #f46d25;
      }

      .cls-3, .cls-4, .cls-5 {
        fill: #fff;
      }

      .cls-6 {
        letter-spacing: -.02em;
      }

      .cls-4 {
        font-size: 27.56px;
      }

      .cls-4, .cls-5 {
        font-family: VisbyCF-ExtraBold, 'Visby CF';
      }

      .cls-5 {
        font-size: 33.58px;
      }
    </style>
  </defs>
  <rect class="cls-2" width="176.32" height="95.52" rx="13.79" ry="13.79"/>
  <text class="cls-4" transform="translate(108.12 37.02)"><tspan x="0" y="0">12+</tspan></text>
  <text class="cls-5" transform="translate(95.05 75.61)"><tspan class="cls-1" x="0" y="0">Y</tspan><tspan class="cls-6" x="18.97" y="0">A</tspan><tspan x="42.48" y="0">Ş</tspan></text>
  <path class="cls-3" d="M81.65,64.2c0,3.43,0,6.86,0,10.29,0,.82-.4,1.22-1.22,1.22-6.15,0-12.3,0-18.45,0-.82,0-1.23-.4-1.23-1.22,0-6.41,0-12.82,0-19.24q0-.45-.46-.45c-3.21,0-6.42,0-9.63,0-.31,0-.36,.1-.36,.38,0,6.42,0,12.85,0,19.27,0,.89-.38,1.27-1.27,1.27-1.97,0-3.94,0-5.91,0-.75,0-1.16-.41-1.18-1.17-.07-3.79-2.93-6.83-6.77-7.18-3.59-.33-6.99,2.24-7.72,5.83-.09,.45-.14,.9-.15,1.36,0,.74-.42,1.15-1.16,1.15-2.01,0-4.03,0-6.04,0-.75,0-1.16-.42-1.16-1.18,0-6.19,0-12.39,0-18.58,0-.71,0-1.42,0-2.12,0-.67,.43-1.1,1.1-1.11,.02,0,.04,0,.07,0,.3-.02,.71,.13,.87-.06,.15-.18,.05-.58,.05-.88,0-.71,0-1.42,0-2.12,0-.69,.43-1.11,1.13-1.12,1.34,0,2.68,0,4.02,0,.69,0,1.12,.43,1.13,1.12,0,.9,.01,1.81,0,2.71,0,.27,.04,.37,.34,.36,1.18-.02,2.35-.02,3.53,0,.24,0,.33-.04,.33-.31-.02-.91,0-1.83,0-2.74,0-.71,.43-1.13,1.14-1.13,1.33,0,2.66,0,3.98,0,.71,0,1.14,.43,1.14,1.13,0,.91,0,1.83,0,2.74,0,.23,.03,.32,.29,.31,.52-.03,1.04-.01,1.57,0,.17,0,.24-.03,.24-.23,0-2.63,0-5.27,0-7.9,0-.26-.13-.24-.29-.24-2.97,0-5.94,0-8.92,0-.86,0-1.25-.39-1.25-1.26,0-3.35,0-6.71,0-10.06,0-.83,.39-1.22,1.21-1.23,.29,0,.67,.13,.84-.06,.14-.17,.04-.54,.04-.82,0-.73,0-1.46,0-2.19,0-.67,.44-1.1,1.11-1.1,1.35,0,2.7,0,4.05,0,.68,0,1.11,.44,1.11,1.13,0,.93,0,1.85,0,2.78,0,.19,.02,.28,.26,.28,1.23-.01,2.46-.01,3.69,0,.21,0,.25-.07,.24-.26,0-.93,0-1.85,0-2.78,0-.73,.42-1.15,1.16-1.15,1.32,0,2.63,0,3.95,0,.75,0,1.16,.42,1.16,1.18,0,.9,.01,1.81,0,2.71,0,.25,.07,.3,.31,.3,.5-.02,1-.02,1.5,0,.26,.01,.3-.07,.29-.31,0-2.97,0-5.94,0-8.92,0-.85,.39-1.23,1.24-1.24,.28,0,.65,.12,.81-.06,.14-.15,.04-.52,.04-.79,0-.73,0-1.46,0-2.19,0-.72,.42-1.14,1.13-1.15,1.34,0,2.68,0,4.02,0,.69,0,1.12,.43,1.12,1.12,0,.94,0,1.87,0,2.81,0,.19,.03,.26,.24,.26,1.23-.01,2.46-.01,3.69,0,.24,0,.26-.09,.25-.28,0-.91,0-1.83,0-2.74,0-.75,.42-1.16,1.18-1.16,1.31,0,2.61,0,3.92,0,.75,0,1.17,.42,1.17,1.17,0,.91,0,1.83,0,2.74,0,.2,.03,.3,.26,.27,.23-.02,.46,0,.69,0,.73,0,1.15,.43,1.15,1.16,0,3.09,0,6.18,0,9.28,0,.32,0,.63,0,.95,0,.73-.42,1.16-1.15,1.16-2.99,0-5.99,0-8.98,0-.24,0-.33,.04-.32,.31,.01,2.58,.01,5.16,0,7.74,0,.24,.04,.34,.31,.32,.5-.02,1-.02,1.5,0,.22,0,.29-.04,.29-.28-.02-.91,0-1.83,0-2.74,0-.75,.42-1.16,1.18-1.16,1.31,0,2.61,0,3.92,0,.75,0,1.17,.42,1.17,1.17,0,.91,0,1.83,0,2.74,0,.2,.03,.29,.26,.27,.24-.02,.48,0,.72,0,.69,0,1.11,.44,1.12,1.13,0,2.97,0,5.94,0,8.92,0,.34,.08,.44,.42,.41,.48-.03,.96-.02,1.44,0,.21,0,.25-.06,.25-.25-.01-.93,0-1.85,0-2.78,0-.73,.42-1.15,1.15-1.16,1.32,0,2.63,0,3.95,0,.75,0,1.16,.42,1.17,1.18,0,.91,0,1.83,0,2.74,0,.21,.05,.29,.27,.27,.22-.02,.44,0,.65,0,.75,0,1.18,.42,1.18,1.17,0,2.21,0,4.42,0,6.63,0,1.23,0,2.46,0,3.69Zm-3.2,1.06c-.09,0-.17,0-.26,0-3.06,0-6.11,0-9.17,0-1.96,0-3.92,0-5.88,0-.16,0-.31-.04-.31,.23,.02,2.36,.01,4.72,.02,7.08,0,.24,.01,.48-.02,.72-.03,.28,.08,.34,.34,.34,3.1,0,6.2,0,9.31,0,2.25,0,4.51,0,6.76,0,.26,0,.34-.06,.32-.32-.02-.48,0-.96,0-1.44,0-2.1,0-4.2,0-6.3,0-.24-.05-.33-.3-.31-.27,.02-.54,.01-.82,.01ZM52.39,30.77c0,.25,0,.5-.02,.75-.03,.25,.06,.3,.3,.3,5.38,0,10.75,0,16.13,0,.24,0,.3-.05,.3-.3-.01-2.34,0-4.68,0-7.02,0-.34,.15-.83-.07-.99-.23-.17-.69-.04-1.04-.04-.11,0-.22-.01-.33-.01-2.5,0-5.01,0-7.51,0-2.49,0-4.99,0-7.48,0-.13,0-.3-.07-.3,.2,.01,2.37,.01,4.75,.02,7.12Zm10.45,31.36c0,.2,0,.39,0,.59q0,.45,.44,.45c2.58,0,5.16,0,7.74,0,2.74,0,5.49,0,8.23,0,.15,0,.32,.07,.32-.21,0-2.64,0-5.29,0-7.93,0-.18-.07-.22-.23-.21-.29,.01-.59,0-.88,.01-2.13,0-4.27,0-6.4,0-2.96,0-5.92,0-8.88,0-.16,0-.34-.06-.34,.24,.01,2.36,.01,4.72,.02,7.08Zm-20.9-10.46c0,.24,.01,.48-.02,.72-.03,.28,.07,.34,.34,.34,8.84,0,17.67,0,26.51,0,.26,0,.34-.05,.34-.33-.01-2.33,0-4.66-.01-6.99,0-.34,.15-.83-.07-.99-.23-.17-.69-.04-1.04-.05-.09,0-.17-.01-.26-.01-6.52,0-13.04,0-19.56,0-1.98,0-3.96,0-5.94,0-.13,0-.3-.08-.3,.19,.01,2.37,.01,4.75,.02,7.12Zm15.6-17.76c-.09,0-.17-.01-.26-.01-6.5,0-13,0-19.49,0-2,0-4.01,0-6.01,0-.13,0-.3-.08-.3,.19,.01,2.37,.01,4.75,.02,7.12,0,.24,.01,.48-.02,.72-.03,.28,.07,.34,.34,.34,8.84,0,17.67,0,26.51,0,.26,0,.35-.05,.34-.33-.01-2.33,0-4.66,0-6.99,0-.34,.15-.83-.07-.99-.23-.17-.69-.04-1.04-.05Zm-36.5,30.3c0,3.07,0,6.14-.01,9.21,0,.23,.13,.2,.27,.2,1.03,0,2.07,0,3.1,0,.27,0,.6,.09,.8-.03,.22-.14,.14-.51,.2-.78,1.22-6.25,8.4-9.51,13.9-6.29,2.57,1.51,4.11,3.75,4.6,6.7,.06,.34,.17,.42,.51,.42,1.15-.03,2.31-.02,3.46,0,.3,0,.35-.09,.35-.36,0-4.06,0-8.12,0-12.18,0-1.99,0-3.98,0-5.97,0-.23-.04-.32-.3-.31-.62,.02-1.24,.01-1.86,.02-.1,0-.2-.01-.29-.01-5.7,0-11.4,0-17.11,0-2.43,0-4.85,0-7.28,0-.3,0-.36,.08-.35,.36,.02,.48,.02,.96,0,1.44,0,.24,.04,.31,.3,.31,1.1-.02,2.2,0,3.3,0,4.97,0,9.95,0,14.92,0,.23,0,.32,.04,.31,.3-.02,.49-.02,.98,0,1.47,.01,.27-.06,.34-.34,.34-4.06,0-8.12,0-12.18,0-2,0-4,0-6.01,0-.13,0-.31-.07-.3,.2,.01,1.68,.01,3.35,.02,5.03ZM56.56,20.33c0-.27,0-.54,0-.81,0-.17-.03-.25-.23-.24-.55,.01-1.11,.01-1.66,0-.18,0-.21,.07-.21,.23,0,.55,.01,1.11,0,1.66,0,.18,.07,.21,.23,.21,.55,0,1.11-.01,1.66,0,.18,0,.22-.07,.21-.23-.01-.27,0-.54,0-.81Zm8.36-.09c0,.07,0,.08,0,.09,0,.33-.11,.79,.06,.97,.2,.21,.65,.06,1,.06,.33,0,.79,.12,.97-.05,.21-.19,.06-.65,.06-1,0-.33,.12-.79-.05-.97-.2-.21-.65-.05-1-.07-.01,0-.02,0-.03,0-.32,0-.76-.11-.94,.05-.21,.19-.04,.63-.06,.91Zm-30.32,11.58c.27,0,.55-.01,.82,0,.21,.02,.25-.07,.25-.26-.01-.53-.01-1.07,0-1.6,0-.18-.04-.25-.23-.24-.54,.01-1.09,.01-1.63,0-.19,0-.23,.06-.23,.24,0,.54,0,1.09,0,1.63,0,.17,.04,.23,.22,.22,.27-.01,.54,0,.82,0Zm10.45,0c.28,0,.57-.01,.85,0,.18,0,.22-.06,.22-.22,0-.55,0-1.11,0-1.67,0-.15-.04-.21-.2-.21-.57,0-1.13,0-1.7,0-.16,0-.2,.06-.2,.21,0,.56,0,1.11,0,1.67,0,.17,.04,.23,.22,.22,.27-.01,.54,0,.82,0Zm20.92,8.38c-.33,0-.78-.13-.97,.03-.22,.19-.06,.65-.07,.99,0,.33-.12,.78,.05,.97,.19,.22,.65,.06,.99,.07,.33,0,.78,.12,.97-.05,.22-.19,.07-.65,.07-.99,0-.34,.15-.8-.07-.99-.19-.17-.64-.03-.97-.03Zm-40.75,11.48c-.04-.34,.14-.8-.08-.99-.19-.17-.64-.05-.97-.05-.33,0-.78-.12-.97,.05-.22,.19-.06,.65-.07,.99,0,.33-.12,.78,.05,.97,.19,.22,.65,.06,.99,.07,.33,0,.78,.12,.98-.05,.22-.19,.04-.65,.08-.99Zm9.43-1.03c-.35,0-.81-.14-1,.04-.22,.2-.06,.67-.07,1.03,0,.32-.11,.76,.05,.94,.19,.21,.63,.06,.96,.06,.35,0,.81,.12,1-.05,.22-.2,.06-.67,.07-1.03,0-.32,.11-.76-.05-.94-.19-.21-.63-.04-.96-.05Zm42.82,1.04c0-.28,0-.57,0-.85,0-.18-.06-.22-.22-.22-.55,0-1.11,0-1.66,0-.15,0-.21,.04-.21,.2,0,.57,0,1.13,0,1.7,0,.16,.06,.2,.21,.2,.55,0,1.11,0,1.66,0,.17,0,.23-.04,.23-.22-.01-.27,0-.54,0-.82Z"/>
  <path class="cls-3" d="M42.98,56.9c.28,0,.56,0,.85,0,.16,0,.2,.05,.2,.2,0,.56,0,1.13,0,1.69,0,.16-.05,.2-.2,.2-.56,0-1.13,0-1.69,0-.16,0-.2-.05-.2-.2,0-.56,0-1.13,0-1.69,0-.16,.05-.21,.2-.2,.28,.01,.56,0,.85,0Z"/>
</svg>