<?xml version="1.0" encoding="UTF-8"?>
<svg id="Layer_1" data-name="Layer 1" xmlns="http://www.w3.org/2000/svg" viewBox="0 0 176.32 95.52">
  <defs>
    <style>
      .cls-1 {
        letter-spacing: -.14em;
      }

      .cls-2 {
        fill: #f46d25;
      }

      .cls-3, .cls-4, .cls-5 {
        fill: #fff;
      }

      .cls-6 {
        letter-spacing: -.02em;
      }

      .cls-4 {
        font-size: 27.56px;
      }

      .cls-4, .cls-5 {
        font-family: VisbyCF-ExtraBold, 'Visby CF';
      }

      .cls-5 {
        font-size: 33.58px;
      }
    </style>
  </defs>
  <rect class="cls-2" width="176.32" height="95.52" rx="13.79" ry="13.79"/>
  <g>
    <path class="cls-3" d="M38.26,47.24c1.92-.51,3.83-.73,5.76-.64,.55,.03,.63-.17,.63-.66-.01-8.13-.01-16.25-.01-24.38,0-1.51,0-3.01,0-4.52,0-.91,.38-1.28,1.3-1.28,8.77,0,17.54-.01,26.31,0,3.6,0,6.39,2.81,6.4,6.41,.02,5.91,0,11.82,0,17.74,0,.99-.37,1.4-1.36,1.34-.65-.04-.84,.14-.78,.78,.06,.7,.02,1.42,.01,2.12,0,1-.36,1.36-1.36,1.36-5.34,0-10.67,.01-16.01-.01-.57,0-.73,.12-.72,.71,.01,.67,.09,1.25,.62,1.72,.24,.22,.46,.5,.58,.8,.35,.91,.99,1.1,1.91,1.05,1.39-.08,2.79-.03,4.18-.01,.37,0,.67-.09,.97-.31,1.42-1.01,3.29-1.02,4.74-.07,.38,.25,.59,.46,.13,.82-.09,.07-.15,.16-.22,.25-.43,.56-.8,.99-1.67,.52-.82-.44-1.85,.04-2.35,.83-.52,.81-.46,1.8,.16,2.53,.62,.73,1.66,.98,2.52,.5,.44-.25,.69-.19,.95,.19,.1,.14,.24,.26,.35,.4,.72,.8,.72,.82-.23,1.3-1.51,.76-2.99,.67-4.39-.28-.29-.2-.56-.3-.91-.3-1.22,.02-2.44,.03-3.65,0-.4-.01-.54,.11-.55,.5-.02,.44-.08,.88-.17,1.31-.09,.43,0,.54,.45,.43,1.21-.3,2.31,0,3.34,.68,.33,.22,.35,.39,.06,.64-.13,.11-.25,.26-.35,.4-.41,.54-.76,.91-1.57,.46-.81-.45-1.86,.01-2.37,.79-.54,.83-.48,1.85,.17,2.58,.64,.72,1.67,.96,2.53,.46,.43-.25,.65-.18,.9,.18,.15,.21,.35,.4,.53,.6,.52,.6,.53,.61-.18,1.02-1.57,.88-3.12,.83-4.62-.18-.75-.51-2.46-.38-3.08,.27-1.02,1.06-2.18,1.94-3.55,2.75,.67,.65,1.31,1.28,1.95,1.91,.17,.17,.37,.11,.56,.11,.73,.03,1.46-.05,2.18,.11,1.87,.43,3.24,2.06,3.3,3.99,.06,1.86,.1,2.35-2.16,2.29-2.32-.06-4.65-.03-6.97,0-.6,0-1.05-.17-1.47-.6-1.8-1.83-3.63-3.64-5.44-5.46-.21-.21-.41-.35-.74-.34-2.36,.06-4.68-.21-6.95-.87-.3-.09-1.24,.58-1.24,.87,0,.06,.04,.12,.08,.17,.05,.07,.13,.12,.18,.19,1.04,1.45,2.38,1.92,4.19,1.82,3.07-.16,5.12,2.4,4.57,5.42-.1,.57-.48,.9-1.07,.9-2.81,.01-5.62,0-8.44,0-.38,0-.67-.18-.93-.44-2.39-2.4-4.79-4.79-7.19-7.19-.47-.47-.54-.96-.23-1.56,.65-1.25,1.26-2.53,1.91-3.78,.17-.32,.16-.5-.14-.77-.91-.83-1.92-1.4-3.06-1.88-4.79-2.03-7.84-5.67-9.46-10.57-.15-.45-.07-.84,.26-1.15,.38-.37,.83-.38,1.29-.15,1.56,.76,3.18,1.31,4.88,1.63,1.42,.27,2.85,.37,4.29,.36,.28,0,.44-.1,.61-.3,.49-.57,.98-1.14,1.51-1.68,.25-.26,.21-.38,0-.63-.43-.5-.71-.67-1.35-.15-.98,.8-2.16,.84-3.31,.27-1.15-.56-1.79-1.52-1.85-2.78-.06-1.41-.03-2.83-.01-4.25,0-.7,.42-1.11,1.13-1.11,1.39-.01,2.79-.04,4.18,.01,1.32,.05,2.32,.71,2.87,1.92,.56,1.21,.41,2.39-.42,3.43-.32,.39-.29,.57,.03,.95,.48,.57,.84,.61,1.44,.15,.93-.72,1.98-1.24,3.06-1.7,.15-.07,.42-.07,.43-.26,.03-.75,.03-1.5,.02-2.25,0-.18-.21-.11-.33-.13-1.34-.22-2.29-.94-2.69-2.25-.41-1.31,0-2.43,.97-3.37,.82-.81,1.62-1.63,2.45-2.44,.61-.59,1.12-.59,1.73,0,.87,.85,1.74,1.71,2.58,2.58,.97,1,1.27,2.18,.75,3.48-.51,1.27-1.51,1.93-2.87,2-.32,.02-.49,.05-.45,.43,.04,.42,0,.84,0,1.29Zm-17.42,9.18c.01,.08,.04,.15,.13,.15h-.03c1.52,2.47,3.65,4.24,6.3,5.35,1.25,.52,2.49,.99,3.42,2.02,.02,.02,.08,0,.12-.01,0-.46,0-.92,0-1.38,0-.4,.02-.8,.03-1.19,.06-2.36,1.66-4.4,3.93-5.02,.85-.23,1.71-.2,2.57-.18,2.51,.06,4.67,1.85,5.07,4.34,.27,1.73,.17,3.48,.02,5.23-.26,1.11-.83,2.05-1.66,2.89,5.49,1.01,11.32-.21,13.79-2.89-.68,0-1.32-.03-1.95,0-1.26,.08-2.3-.31-3.13-1.27-.29-.55-.57-1.1-.57-1.74,0-1.53-.03-3.05,0-4.58,.04-1.69,1.47-3.03,3.15-3.05,1.89-.01,3.23,1.44,3.21,3.53,0,.52,.03,.88,.68,.7,.86,0,1.72,0,2.58,.03,.29,0,.41-.08,.49-.38,.22-.81,.37-1.64,.45-2.47,.18-1.92-.04-3.78-1-5.5-.42-1.01-1.05-1.85-1.85-2.59-.49-.75-.24-1.59-.27-2.39-.01-.41-.12-.52-.52-.51-1.52,.02-3.05-.02-4.57,.02-1.56,.04-3.09-.03-4.48-1.1,0,.53,.02,.95,0,1.36-.05,.83,.15,1.68-.16,2.49-.34,.32-.73,.45-1.21,.43-.66-.03-1.33-.01-1.99,0-5.62,.05-10.18,2.27-13.63,6.72-.39,.5-.81,.72-1.45,.73-2.77,.08-5.46-.3-8.1-1.11-.04-.02-.08-.03-.13-.05,.01,.05,.02,.09,.04,.14,.13,.37,.3,.72,.56,1.02,.05,.09,.11,.18,.16,.27h0ZM47.83,20.43c.9-.44,1.44-1.21,1.82-2.1,.14-.32,.09-.47-.32-.45-.6,.03-1.2,.06-1.79,0-.7-.08-.91,.17-.76,.82,0,.39-.03,.79-.02,1.18,.01,.32-.16,.79,.09,.92,.32,.17,.68-.13,.98-.36Zm4.26,36.81c-.76,.11-1.06,.42-1.07,1.16-.01,1.3,0,2.61,0,3.91,0,.94,.34,1.28,1.27,1.28,1.72,0,3.45,0,5.17,0q1.09,0,.97-1.07c.01-.13,0-.27,.04-.39,.21-.56,.01-.7-.56-.68-1.19,.05-2.39,.02-3.58,.01-.79,0-1.18-.41-1.19-1.19-.01-.64,.01-1.28,0-1.93-.02-.69-.31-.99-1.05-1.11Zm2.65,15.79c-.89-.88-1.81-1.74-2.68-2.65-.35-.36-.65-.48-1.05-.15-.91,.22-1.83,.45-2.76,.67,.04,.09,.05,.15,.1,.2,1.32,1.33,2.65,2.66,3.98,3.99,.13,.13,.27,.21,.46,.21,2.12,0,4.24,0,6.36,0,.36,0,.39-.15,.33-.45-.2-.97-1.09-1.65-2.18-1.69-.86-.03-1.72,.13-2.56-.13Zm-16.6,4.35c1.68,0,3.36,0,5.04,.04,.41,0,.42-.16,.35-.48-.22-.94-1.06-1.63-2.07-1.65-.97-.02-1.95-.02-2.92,0-.47,0-.85-.13-1.19-.47-.96-.98-1.94-1.94-2.9-2.92-.6-.61-.6-1.13-.02-1.73,.61-.64,1.25-1.25,1.87-1.88,.29-.3,.63-.43,1.06-.46,1.77-.13,3.01-1.46,3.03-3.24,.01-.93-.02-1.86,0-2.79,.03-1.47-.5-2.68-1.88-3.21-1.47-.56-3.02-.66-4.38,.45-.79,.58-1.14,1.39-1.17,2.33-.03,.93-.02,1.86,0,2.78,.01,.5-.09,.95-.32,1.4-.82,1.59-1.6,3.2-2.42,4.79-.19,.36-.14,.57,.14,.84,1.76,1.74,3.55,3.45,5.23,5.26,.74,.8,1.52,1.13,2.55,.92Zm38.37-39.3c0-5.22,.02-10.44,.02-15.66,0-2.73-1.81-4.53-4.53-4.53-4.07,0-8.14,0-12.21,0-2.43,0-4.87,0-7.3,0-.25,0-.49-.07-.58,.33-.27,1.34-1,2.43-1.96,3.39-.81,.62-1.67,1.18-2.69,1.38-.42,.08-.5,.28-.5,.66,.01,3.94,0,7.88,.01,11.82,0,.13-.09,.31,.1,.41,.13-.08,.26-.16,.39-.24,2.94-1.73,6.67-.33,7.72,2.91,.17,.52,.4,.6,.88,.6,6.55-.02,13.11,0,19.66,0q1.04,0,.99-1.06Zm-14.65,5.32c3.7,0,7.39,0,11.09,0,1.46,0,1.43,0,1.48-1.46,.02-.57-.15-.68-.69-.67-6.35,.02-12.7,.01-19.05,.01-1.18,0-1.42-.21-1.55-1.38-.24-2.22-2.61-3.52-4.6-2.53-1.29,.65-2.01,2.12-1.7,3.49,.34,1.51,1.58,2.54,3.14,2.54,3.96,.01,7.92,0,11.88,0Zm-36.35,3.69c0,.58-.01,1.04,0,1.51,.01,.51,.26,.88,.73,1.08,.48,.21,.92,.11,1.28-.24,.64-.61,1.26-1.24,1.88-1.87,.35-.36,.47-.8,.27-1.28-.21-.5-.59-.76-1.13-.77-.46,0-.93,0-1.39,0-.53,0-1.23-.17-1.53,.1-.36,.32-.06,1.04-.12,1.46Zm11.82-3.68c.4,0,.8,0,1.2,0,.49,0,.86-.19,1.07-.64,.22-.46,.09-.87-.24-1.22-.55-.57-1.13-1.13-1.68-1.7-.18-.19-.32-.26-.54-.03-.58,.61-1.19,1.19-1.77,1.8-.29,.31-.38,.7-.21,1.11,.18,.43,.52,.66,.98,.67,.4,.01,.8,0,1.2,0Zm25.91,8.5c-.62,0-1.13,0-1.64,0-.28,0-.41,.07-.35,.38,.11,.49,.2,.99,.28,1.49,.04,.24,.2,.26,.38,.26,.9,0,1.81,0,2.71,0,.18,0,.4,0,.32-.27-.18-.59,.2-1.38-.07-1.71-.33-.41-1.15-.07-1.64-.14Z"/>
    <path class="cls-3" d="M50.31,29.57c-.33-1.03-.45-2.08-.28-3.16,.63-2.96,2.74-4.95,5.62-5.31,2.54-.32,5.17,1.11,6.36,3.46,1.59,3.13,.34,6.98-2.79,8.58-3.1,1.58-6.94,.35-8.55-2.74-.1-.19-.21-.38-.31-.57,0,0,0,.02,0,.02-.02-.09-.04-.18-.06-.28Zm5.67,2.08c-.98-1.69-.94-3.05,.11-4.2,.58-.63,1.3-.98,2.15-1.05,.84-.07,1.57,.26,2.29,.71-.28-2.4-2.12-4.01-4.42-3.9-2.15,.1-3.92,1.87-4.02,4.02-.1,2.3,1.51,4.14,3.9,4.42Zm3.53-2.04c.01-.58-.45-1.07-1.03-1.08-.58-.01-1.06,.45-1.08,1.03-.02,.58,.45,1.07,1.03,1.08,.58,.02,1.07-.45,1.08-1.03Z"/>
    <path class="cls-3" d="M72.33,34.9q1.01,0,1.01,1.05t-1.05,1.08-1.08-1.05,1.12-1.08Z"/>
    <path class="cls-3" d="M42.53,52.98c0-.2-.02-.4,0-.6,.03-.5-.23-1.26,.11-1.44,.46-.25,1.15-.09,1.74-.1,.19,0,.29,.07,.27,.27,0,.02,0,.04,0,.07q.18,1.79-1.6,1.79c-.18,0-.35,0-.53,0,0,0,.01,.01,.01,.01Z"/>
    <path class="cls-3" d="M40.38,52.97c.71,0,1.43,0,2.14,0,0,0-.01-.01-.01-.01,0,.18,0,.35,0,.53,0,1.7,0,1.69-1.73,1.61-.32-.01-.42-.1-.41-.42,.02-.57,.01-1.15,.01-1.72h-.01Z"/>
    <path class="cls-3" d="M40.4,52.96c-.2,0-.4,.02-.6,0-.5-.03-1.25,.23-1.44-.11-.25-.46-.08-1.15-.1-1.75,0-.2,.08-.28,.27-.27,.07,0,.13,0,.2,0q1.66-.05,1.66,1.6c0,.18,0,.35,0,.53h.01Z"/>
  </g>
  <text class="cls-4" transform="translate(109.19 35.6)"><tspan x="0" y="0">2-4</tspan></text>
  <text class="cls-5" transform="translate(95.05 75.61)"><tspan class="cls-1" x="0" y="0">Y</tspan><tspan class="cls-6" x="18.97" y="0">A</tspan><tspan x="42.48" y="0">Ş</tspan></text>
</svg>