<?xml version="1.0" encoding="UTF-8"?>
<svg id="Layer_1" data-name="Layer 1" xmlns="http://www.w3.org/2000/svg" viewBox="0 0 176.32 95.52">
  <defs>
    <style>
      .cls-1 {
        letter-spacing: -.14em;
      }

      .cls-2 {
        fill: #f46d25;
      }

      .cls-3, .cls-4, .cls-5 {
        fill: #fff;
      }

      .cls-6 {
        letter-spacing: -.02em;
      }

      .cls-4 {
        font-size: 27.56px;
      }

      .cls-4, .cls-5 {
        font-family: VisbyCF-ExtraBold, 'Visby CF';
      }

      .cls-5 {
        font-size: 33.58px;
      }
    </style>
  </defs>
  <rect class="cls-2" width="176.32" height="95.52" rx="13.79" ry="13.79"/>
  <text class="cls-4" transform="translate(105.44 35.6)"><tspan x="0" y="0">4-6</tspan></text>
  <text class="cls-5" transform="translate(95.05 75.61)"><tspan class="cls-1" x="0" y="0">Y</tspan><tspan class="cls-6" x="18.97" y="0">A</tspan><tspan x="42.48" y="0">Ş</tspan></text>
  <g id="kIjdbH.tif">
    <g>
      <path class="cls-3" d="M52.6,38.38c.38-1.91,.74-3.81,1.15-5.71,.3-1.4,.52-2.83,.99-4.18,1.45-4.15,5.42-6.93,9.82-7.01,.26,0,.37-.09,.46-.32,.46-1.15,.99-2.25,1.87-3.16,2.31-2.36,5.89-2.93,8.79-1.36,.92,.5,1.1,1.1,.6,2.02-.8,1.45-1.6,2.91-2.4,4.36-.07,.12-.13,.24-.21,.39,.18,.05,.33,.09,.48,.13,2.65,.72,4.5,2.94,4.81,5.77,.02,.17,.07,.35,.14,.5,.64,1.32,1.29,2.64,1.95,3.96,.09,.19,.23,.36,.37,.51,1.84,1.85,3.68,3.69,5.53,5.53,.4,.4,.54,.83,.44,1.4-.4,2.29-.77,4.59-1.15,6.88-.12,.74-.46,1.07-1.21,1.18-2.74,.39-5.48,.79-8.22,1.18-.49,.07-.88-.1-1.22-.45-1.97-1.98-3.95-3.96-5.93-5.93-.1-.1-.2-.19-.34-.32,0,.13-.02,.2-.02,.26,0,2.37-.02,4.73,0,7.1,.04,3.26,1.05,6.2,2.97,8.83,.07,.1,.15,.19,.26,.32,.27-.27,.51-.53,.76-.77,.54-.54,1.24-.55,1.78-.02,1.06,1.04,2.11,2.09,3.15,3.15,.56,.57,.54,1.27-.03,1.84-5.04,4.93-10.96,8.3-17.77,10.1-4.22,1.12-8.52,1.46-12.87,1.23-6.73-.35-12.97-2.29-18.72-5.79-2.59-1.58-4.96-3.44-7.12-5.58-.55-.54-.56-1.26-.01-1.81,1.04-1.06,2.1-2.11,3.15-3.15,.54-.53,1.23-.52,1.78,0,.25,.25,.48,.51,.8,.84,.48-.77,.97-1.46,1.36-2.19,1.2-2.21,1.81-4.58,1.83-7.09,.02-1.66,0-3.32,0-4.99,0-.84-.19-1.64-.54-2.41-.11-.24-.26-.41-.54-.38-.28,.03-.4,.22-.45,.48-.57,2.86-1.15,5.72-1.72,8.58-.13,.64-.25,1.28-.38,1.92-.17,.83-.88,1.25-1.68,.95-3.19-1.19-6.38-2.39-9.57-3.59-.8-.3-1.04-1.02-.64-1.82,2.04-4.08,4.07-8.17,6.13-12.24,.44-.87,.87-1.78,1.46-2.54,2.51-3.25,7.36-3.59,10.33-.75,1.33,1.27,2.6,2.6,3.91,3.89,.12,.12,.31,.23,.47,.23,5.01,.01,10.02,0,15.03,0,.04,0,.07,0,.16-.02Zm21-19.94c-2.13-.72-4.66,.32-5.72,2.37-.43,.83-.81,1.71-1.11,2.6-.65,1.89-1.28,3.78-2.21,5.56-.91,1.75-1.24,3.65-1.28,5.61-.04,1.98-.86,3.59-2.38,4.85-1.29,1.06-2.79,1.52-4.45,1.42-.33-.02-.43,.07-.43,.41,.02,1.51,.01,3.02,0,4.53,0,2.54-1.99,4.61-4.53,4.72-.23,.01-.31,.07-.31,.31,0,1.38,0,2.77,0,4.15,0,.24,.07,.32,.32,.33,.63,.01,1.26,0,1.88,.1,3.01,.47,5.49,1.88,7.39,4.28,.24,.31,.47,.43,.85,.38,2.28-.28,4.32-1.11,6.09-2.58,.22-.18,.26-.33,.16-.6-.61-1.66-.99-3.38-1.01-5.15-.04-3.63-.01-7.25-.01-10.88,0-.14,0-.28,.05-.41,.29-.91,1.39-1.17,2.1-.47,1.06,1.04,2.1,2.1,3.16,3.15,.1,.1,.21,.2,.34,.32,1.88-3.32,4.67-5.35,8.48-6.13-.55-.54-1.05-1-1.52-1.48-.19-.2-.36-.42-.49-.66-.69-1.37-1.35-2.76-2.04-4.12-.27-.53-.41-1.06-.47-1.65-.17-1.76-1.5-3.19-3.24-3.51-.55-.1-1.12-.15-1.68-.22-.63-.08-1.11-.62-1.04-1.26,.03-.28,.14-.56,.27-.81,.93-1.71,1.88-3.41,2.83-5.15ZM24.82,52.4c.05-.14,.09-.22,.1-.31,.59-2.95,1.17-5.9,1.76-8.85,.25-1.28,1.18-2.22,2.42-2.44,1.2-.21,2.45,.37,3.04,1.45,.59,1.09,.92,2.25,.94,3.5,.02,1.5-.02,3,.01,4.49,.05,2.31-.28,4.56-1.06,6.73-.04,.11,.02,.33,.11,.4,.37,.32,.76,.62,1.17,.89,1.53,1.01,3.22,1.58,5.03,1.78,.24,.03,.48,.07,.68-.19,1.21-1.63,2.77-2.83,4.64-3.63,.19-.08,.26-.19,.26-.4,0-1.66,0-3.32,0-4.99,0-.25-.08-.32-.32-.33-2.49-.09-4.51-2.19-4.52-4.66,0-1.54,0-3.07,0-4.61,0-.32-.1-.41-.41-.4-.64,.02-1.28,0-1.93,0-.41,0-.73-.14-1.01-.42-.49-.49-.98-.98-1.47-1.47-.98-.98-1.95-1.97-2.95-2.93-.9-.86-2.01-1.28-3.23-1.22-1.83,.09-3.2,.97-4.02,2.62-2.01,4-4.01,8-6.01,12.01-.05,.11-.09,.22-.15,.36,2.32,.87,4.61,1.73,6.93,2.6Zm14.27,15c7.26,2.37,14.5,2.37,21.81-.01-.07-.74-.09-1.47-.21-2.18-.61-3.84-4.01-7.06-7.88-7.39-1.55-.13-3.12-.09-4.68-.08-2.1,0-3.99,.66-5.62,1.99-2.42,1.97-3.51,4.55-3.43,7.68Zm2.43-26.56c0,1.58,0,3.11,0,4.65,0,1.59,.97,2.55,2.57,2.55,2.31,0,4.63,0,6.94,0,1.58,0,2.53-.96,2.54-2.54,0-1.42,0-2.84,0-4.26,0-.12-.01-.24-.02-.39h-12.03Zm43.39,.48c-.03-.05-.07-.17-.15-.25-.16-.18-.37-.32-.5-.51-.61-.89-1.44-1.13-2.45-.87-.15,.04-.3,.04-.45,.07-3.19,.64-5.49,2.44-6.9,5.37-.08,.17-.06,.29,.08,.42,.76,.75,1.51,1.51,2.28,2.26,.09,.09,.26,.14,.39,.13,2.07-.28,4.13-.59,6.2-.86,.41-.05,.64-.18,.63-.62,0-.2,.07-.4,.1-.59,.25-1.49,.49-2.98,.75-4.54Zm-14.23,20.57c-.53-.79-1.04-1.56-1.5-2.25-1.07,.6-2.09,1.28-3.2,1.76-1.12,.48-2.33,.77-3.42,1.12,.26,1.24,.54,2.55,.82,3.86,1.69-.53,6.13-3.25,7.3-4.49Zm-41.43,.02c2.24,1.86,4.7,3.36,7.32,4.48,.29-1.34,.57-2.65,.85-3.98-2.41-.36-4.63-1.32-6.58-2.87-.53,.8-1.05,1.57-1.58,2.37Zm25.89-23.56c.24,0,.44-.02,.63,0,.36,.04,.5-.08,.57-.45,.45-2.36,.95-4.71,1.4-7.06,.36-1.93,1.12-3.64,2.45-5.1,.14-.16,.29-.31,.45-.46,.14-.14,.29-.27,.44-.4-2.19,1.13-3.67,2.85-4.26,5.24-.42,1.71-.72,3.46-1.07,5.19-.2,.99-.4,1.98-.61,3.04Zm-6.41,16.9v-4.74h-2.33v4.88c.79-.05,1.55-.09,2.33-.14Z"/>
      <path class="cls-3" d="M74.15,29.93v2.43h-2.43v-2.43h2.43Z"/>
      <path class="cls-3" d="M80.2,44.43v-2.39h2.39v2.39h-2.39Z"/>
    </g>
  </g>
</svg>