<?xml version="1.0" encoding="UTF-8"?>
<svg id="Layer_1" data-name="Layer 1" xmlns="http://www.w3.org/2000/svg" viewBox="0 0 176.32 95.52">
  <defs>
    <style>
      .cls-1 {
        letter-spacing: -.14em;
      }

      .cls-2 {
        letter-spacing: -.04em;
      }

      .cls-3 {
        fill: #f46d25;
      }

      .cls-4, .cls-5, .cls-6 {
        fill: #fff;
      }

      .cls-7 {
        letter-spacing: -.02em;
      }

      .cls-5 {
        font-size: 27.56px;
      }

      .cls-5, .cls-6 {
        font-family: VisbyCF-ExtraBold, 'Visby CF';
      }

      .cls-6 {
        font-size: 33.58px;
      }
    </style>
  </defs>
  <rect class="cls-3" width="176.32" height="95.52" rx="13.79" ry="13.79"/>
  <text class="cls-5" transform="translate(102.08 35.6)"><tspan x="0" y="0">5</tspan><tspan class="cls-2" x="15.38" y="0">-</tspan><tspan x="25.3" y="0">12</tspan></text>
  <text class="cls-6" transform="translate(95.05 75.61)"><tspan class="cls-1" x="0" y="0">Y</tspan><tspan class="cls-7" x="18.97" y="0">A</tspan><tspan x="42.48" y="0">Ş</tspan></text>
  <g>
    <path class="cls-4" d="M48.78,16.04c3.91,0,7.82,0,11.73,0,.83,0,1.22,.41,1.17,1.23-.22,3.46-.44,6.91-.66,10.37-.09,1.35-.16,2.7-.26,4.05-.01,.2,.05,.24,.23,.24,.54-.01,1.08,0,1.61,0,.65,0,1.06,.41,1.06,1.07,0,1.27,0,2.54,0,3.82,0,.38-.12,.7-.45,.9-.16,.1-.14,.18-.08,.32,.46,1.06,1.1,2.01,1.92,2.83,2.03,2.05,3.05,4.54,3.27,7.4,.2,2.61-.06,5.16-1.07,7.6-.49,1.19-1.12,2.3-1.93,3.3-.87,1.09-2.01,1.79-3.34,2.18-.24,.07-.32,.17-.31,.42,.02,.95,0,1.9,0,2.85,0,.67-.41,1.07-1.08,1.08-.31,0-.62,.01-.93,.02,0,.29,.02,.59,.02,.88,0,2.65,0,5.29,0,7.94,0,.68-.4,1.09-1.07,1.09-6.57,0-13.13,0-19.7,0-.66,0-1.07-.41-1.07-1.06,0-2.66,0-5.32,0-7.97,0-.14,0-.29,.01-.43,.03-.46,.03-.46-.42-.46-.19,0-.37,0-.56,0-.59-.01-1.01-.43-1.02-1.02,0-.99,0-1.99,0-2.98,0-.13,.04-.25-.16-.3-2.37-.62-3.79-2.29-4.87-4.36-1.2-2.31-1.7-4.77-1.68-7.35,.02-1.92,.26-3.79,1.07-5.55,.53-1.16,1.22-2.2,2.11-3.11,.86-.87,1.57-1.84,2.05-2.96,.07-.17,.08-.25-.1-.36-.28-.17-.41-.46-.41-.79,0-1.33,0-2.67,0-4,0-.54,.43-.95,.97-.96,.58-.01,1.16,0,1.74,0,.17,0,.21-.04,.2-.21-.13-2.04-.26-4.09-.39-6.13-.12-1.84-.23-3.67-.35-5.51-.06-.89-.11-1.77-.17-2.66-.02-.3-.06-.6,.11-.88,.23-.37,.56-.51,.99-.51,3.93,0,7.86,0,11.79,0Zm8.13,12.91c0,.24-.03,.48,0,.71,.02,.24-.07,.29-.3,.29-1.64,0-3.29,0-4.93,0-4.23,0-8.46,0-12.69,0-.29,0-.34,.09-.31,.35,.05,.42,.1,.85,.09,1.27,0,.34,.13,.39,.43,.39,4.4,0,8.81,0,13.21,0,2.03,0,4.05,0,6.08,0,.13,0,.28,.07,.3-.18,.04-.93,.11-1.86,.17-2.78,.1-1.54,.2-3.08,.29-4.63-1.17,1.34-2.32,2.65-3.84,3.6,.42,.03,.83,.04,1.23,.02,.22,0,.29,.07,.28,.29-.01,.24,0,.48,0,.71Zm-8.13,33.06c-.46,.67-.73,.8-1.4,.63-1.09-.27-2.18-.54-3.27-.82-.26-.07-.3,0-.3,.24,0,.85,0,1.7,0,2.54,0,.68-.4,1.08-1.08,1.08-.73,0-1.47,0-2.2,0-.66,0-.68,0-.68,.66,0,2.36,0,4.72,0,7.07,0,.16,.03,.22,.2,.22,2.51,0,5.03,0,7.54,0,.17,0,.21-.06,.21-.21,0-.51-.01-1.01,0-1.52,0-.2-.05-.26-.26-.26-.81,.01-1.61,0-2.42,0-.23,0-.33-.03-.31-.3,.02-.47,.02-.95,0-1.43,0-.22,.06-.28,.27-.27,.82,.01,1.63,0,2.45,0,.19,0,.27-.04,.26-.25-.02-.5-.02-.99,0-1.49,0-.21-.07-.26-.26-.25-.83,.01-1.65,0-2.48,0-.19,0-.25-.04-.24-.24,.01-.49,.02-.97,0-1.46-.01-.26,.08-.3,.31-.3,.81,.01,1.61,0,2.42,0,.21,0,.26-.06,.26-.26-.01-.44,0-.89,0-1.33,0-.15,.03-.22,.2-.22,.53,.01,1.05,0,1.58,0,.17,0,.21,.05,.21,.21,0,.43,.01,.87,0,1.3-.01,.26,.08,.3,.31,.3,.81-.01,1.61,0,2.42,0,.2,0,.26,.06,.26,.26-.01,.48-.02,.95,0,1.43,0,.23-.04,.32-.3,.31-.81-.02-1.61,0-2.42-.01-.22,0-.28,.07-.27,.28,.02,.49,.01,.97,0,1.46,0,.2,.05,.26,.26,.26,.82-.01,1.63,0,2.45,0,.21,0,.29,.03,.28,.27-.02,.49-.02,.97,0,1.46,0,.22-.06,.28-.28,.27-.82-.01-1.63,0-2.45,0-.2,0-.27,.04-.26,.25,.02,.49,.02,.97,0,1.46-.01,.24,.08,.28,.3,.28,2.45,0,4.9,0,7.35,0,.24,0,.31-.06,.31-.3,0-2.24,0-4.49,0-6.73,0-.23-.04-.45-.05-.68,0-.19-.08-.24-.26-.24-.86,0-1.72,0-2.57,0-.68,0-1.08-.4-1.08-1.08,0-.83,0-1.65,0-2.48,0-.37,0-.37-.35-.29-1.03,.26-2.06,.51-3.09,.77-.8,.2-1.06,.11-1.52-.6Zm-7.32-43.98c-1.09,0-2.17,0-3.26,0-.24,0-.31,.07-.29,.3,.07,.63,.11,1.27,.13,1.91,0,.48,.12,.9,.5,1.27,.41,.4,.74,.88,1.12,1.32,.84,.97,1.62,2,2.64,2.81,1.77,1.39,3.77,2.12,6,2.26,.8,.05,1.6-.03,2.4-.18,2.05-.4,3.84-1.31,5.32-2.77,1.18-1.17,2.17-2.51,3.25-3.77,.07-.08,.17-.15,.18-.28,.06-.87,.12-1.75,.18-2.62,.01-.17-.04-.24-.22-.24-2.2,0-4.41,0-6.61,0-.17,0-.22,.05-.25,.22-.28,1.77-.56,3.53-.86,5.29-.19,1.14-1.15,2.13-2.24,2.36-1.23,.26-2.47-.23-3.14-1.24-.34-.51-.45-1.09-.53-1.69-.22-1.56-.53-3.1-.77-4.65-.04-.26-.14-.29-.35-.29-1.07,0-2.13,0-3.2,0Zm-1.5,41.7c.94,0,1.88,0,2.82,0,.19,0,.27-.05,.31-.24,.11-.49,.23-.99,.37-1.47,.07-.24,0-.29-.22-.28-.63,.03-1.26,0-1.88-.15-2.79-.7-4.59-2.43-5.31-5.23-.37-1.44-.21-2.9,.11-4.32,.35-1.54,.84-3.05,.96-4.65,.13-1.75,.39-3.5,.59-5.25,.02-.18-.01-.27-.22-.26-.24,.01-.48,.01-.71,0-.17-.01-.23,.07-.28,.21-.58,1.64-1.51,3.06-2.74,4.3-1.11,1.12-1.86,2.47-2.24,4.01-.39,1.54-.44,3.11-.32,4.7,.15,1.97,.69,3.81,1.68,5.51,.44,.75,.9,1.49,1.63,2,1.01,.71,2.11,1.15,3.37,1.12,.69-.02,1.39,0,2.08,0Zm17.61,0c.7,0,1.41-.04,2.11,0,.88,.06,1.66-.26,2.44-.57,.49-.2,.92-.5,1.3-.88,.66-.65,1.12-1.43,1.55-2.23,.81-1.54,1.24-3.18,1.38-4.91,.12-1.46,.07-2.91-.22-4.34-.36-1.75-1.19-3.27-2.46-4.54-1.05-1.05-1.85-2.26-2.42-3.63-.1-.24-.11-.6-.33-.71-.23-.11-.55-.03-.82-.04-.02,0-.04,0-.06,0-.16-.02-.23,.05-.21,.21,.09,.79,.18,1.58,.27,2.36,.12,1.03,.23,2.07,.35,3.1,.1,.91,.17,1.83,.46,2.7,.41,1.24,.68,2.51,.77,3.81,.1,1.51-.17,2.94-.96,4.25-.92,1.54-2.25,2.58-3.98,3.12-.8,.25-1.61,.33-2.44,.3-.21,0-.28,.04-.21,.27,.14,.49,.26,.98,.37,1.47,.04,.2,.13,.26,.33,.26,.93-.01,1.86,0,2.79,0Zm-8.78-21.84c-.67,0-1.34,0-2.02,0-2.25,0-4.51,0-6.76,0-.13,0-.28-.07-.31,.18-.3,2.56-.51,5.14-.89,7.69-.02,.12,0,.16,.12,.19,1.86,.55,3.68,.54,5.46-.31,.36-.17,.73-.34,1.14-.37,.22-.02,.26-.11,.26-.31,0-1,0-2.01,0-3.01,0-.7,.4-1.09,1.1-1.09,1.25,0,2.5,0,3.75,0,.71,0,1.1,.4,1.11,1.12,0,1,0,2.01,0,3.01,0,.17,.03,.26,.23,.28,.36,.03,.7,.15,1.03,.31,1.65,.8,3.35,.96,5.12,.49,.2-.05,.46-.05,.58-.18,.12-.14-.03-.38-.06-.58-.27-2.37-.54-4.74-.8-7.11-.03-.25-.1-.32-.34-.31-2.9,0-5.81,0-8.71,0Zm-.05-1.99c.68,0,1.36,0,2.05,0,3.53,0,7.05,0,10.58,0,.26,0,.33-.07,.32-.32-.02-.43-.03-.87,0-1.3,.02-.29-.06-.37-.36-.37-6.08,.01-12.16,0-18.24,0-2.31,0-4.61,0-6.92,0-.25,0-.31,.07-.3,.31,.02,.45,.02,.91,0,1.36-.01,.25,.05,.33,.32,.33,4.19,0,8.38,0,12.56,0Zm.03,19.86c.91,0,1.82,0,2.73,0,.2,0,.26-.05,.25-.26-.01-.86-.02-1.72,0-2.57,0-.3-.07-.41-.37-.48-.91-.19-1.82-.42-2.51-1.1-.12-.12-.18-.02-.25,.05-.41,.37-.89,.64-1.42,.78-.39,.11-.77,.22-1.17,.3-.17,.04-.25,.09-.25,.29,.01,.91,.01,1.82,0,2.73,0,.21,.06,.25,.26,.25,.91-.01,1.82,0,2.73,0Zm-10.65-7.34c-.15,.58-.2,1.12-.25,1.67-.17,2.1,.56,3.78,2.36,4.94,1.05,.68,2.22,.77,3.42,.73,.2,0,.14-.13,.14-.23,0-.83,0-1.65,0-2.48,0-.25-.08-.28-.29-.28-1.84,0-3.23-.78-4.19-2.34-.4-.65-.79-1.31-1.21-2.01Zm21.32-.02c-.41,.68-.79,1.3-1.15,1.92-.97,1.64-2.4,2.48-4.31,2.46-.19,0-.24,.04-.24,.24,.01,.84,.01,1.67,0,2.51,0,.18,.03,.26,.23,.24,.29-.02,.58,0,.87,0,2.04-.04,3.87-1.35,4.56-3.28,.48-1.33,.28-2.66,.04-4.08Zm-19.08-.12c.33,.55,.58,1.07,.94,1.52,.41,.52,.95,.84,1.62,.95,.47,.08,.94,.04,1.41,0,.83-.07,1.63-.24,2.41-.5,.64-.22,1.02-.76,1.04-1.39,.04-1.04-1.32-2.06-2.47-1.46-1.53,.8-3.18,1.03-4.96,.89Zm16.78,.03c-.11-.07-.18,0-.26,0-1.61,.07-3.17-.17-4.62-.89-.53-.27-1.06-.31-1.59,0-.59,.35-.96,.83-.89,1.54,.06,.71,.5,1.12,1.16,1.33,.48,.15,.97,.28,1.47,.36,.7,.11,1.41,.21,2.12,.12,1.46-.19,2.02-1.34,2.62-2.46Zm-17.3,13.41c-.59,0-1.18,0-1.77,0-.17,0-.23,.03-.23,.22,.01,.52,.01,1.03,0,1.55,0,.17,.04,.23,.22,.23,1.18,0,2.35,0,3.53,0,.17,0,.23-.03,.23-.22-.01-.52-.02-1.03,0-1.55,0-.21-.08-.23-.25-.23-.58,0-1.16,0-1.73,0Zm17.87,1.99c.59,0,1.18,0,1.77,0,.18,0,.23-.05,.22-.22-.01-.52-.01-1.03,0-1.55,0-.18-.05-.22-.23-.22-1.18,0-2.35,0-3.53,0-.18,0-.23,.05-.22,.22,.01,.52,.01,1.03,0,1.55,0,.18,.05,.22,.23,.22,.59,0,1.18,0,1.77,0Zm-7.52-43.36c.12-.72,.24-1.43,.37-2.14,.02-.12,0-.17-.14-.17-1.1,0-2.19,0-3.29,0-.11,0-.17,.02-.15,.16,.12,.66,.23,1.32,.34,1.98,.03,.2,.11,.16,.24,.1,.59-.26,1.21-.33,1.85-.19,.26,.06,.51,.16,.78,.25Zm-.42,23.92c0-.39-.01-.79,0-1.18,0-.2-.06-.24-.25-.24-.5,.01-.99,.01-1.49,0-.2,0-.27,.04-.26,.25,.01,.62,.04,1.24,0,1.86-.04,.5,.07,.85,.55,1.06,.13,.06,.23,.17,.33,.27,.08,.08,.14,.11,.23,0,.25-.28,.71-.38,.85-.69,.14-.31,.04-.73,.04-1.1,0-.08,0-.17,0-.25Zm-1.99,14.5c0-.35,0-.59,0-.83,0-.14-.03-.2-.19-.2-.61,0-1.22,0-1.83,0-.13,0-.2,.03-.23,.17-.15,.63-.31,1.26-.47,1.89-.03,.13-.03,.2,.14,.24,.63,.15,1.26,.31,1.89,.47,.13,.03,.18-.01,.24-.12,.28-.55,.62-1.08,.46-1.64Zm3.08-1.02c-.3,0-.6,0-.9,0-.08,0-.2-.04-.2,.12,0,.88-.11,1.78,.47,2.56,.08,.11,.14,.13,.25,.1,.62-.16,1.24-.32,1.86-.47,.18-.04,.18-.13,.14-.27-.16-.62-.32-1.24-.47-1.86-.04-.17-.12-.19-.26-.18-.3,0-.6,0-.9,0Zm-8.73-29.79c-1.5-.98-2.66-2.29-3.81-3.72,.06,1.06,.1,2.02,.16,2.98,.04,.74,.04,.74,.79,.74,.31,0,.62,0,.93,0,.64,0,1.29,0,1.93,0Zm6.64-3.97c.54,0,.99-.44,1-.98,0-.54-.44-.99-.97-1-.55-.01-1.01,.44-1.01,.99,0,.54,.45,.99,.99,.99Z"/>
    <path class="cls-4" d="M40.84,41.84c0-1.11,.88-1.97,2.02-1.97,1.1,0,1.95,.88,1.95,2,0,1.1-.88,1.97-1.99,1.97-1.12,0-1.99-.88-1.98-2Z"/>
    <path class="cls-4" d="M56.72,41.86c0,1.1-.87,1.97-1.98,1.98-1.12,0-1.99-.87-1.99-2,0-1.1,.88-1.98,1.98-1.97,1.12,0,1.99,.87,1.99,2Z"/>
  </g>
</svg>