<?xml version="1.0" encoding="UTF-8"?>
<svg id="Layer_1" data-name="Layer 1" xmlns="http://www.w3.org/2000/svg" viewBox="0 0 176.32 95.52">
  <defs>
    <style>
      .cls-1 {
        letter-spacing: -.08em;
      }

      .cls-2 {
        letter-spacing: -.03em;
      }

      .cls-3 {
        fill: #f46d25;
      }

      .cls-4, .cls-5 {
        fill: #fff;
      }

      .cls-5 {
        font-family: VisbyCF-ExtraBold, 'Visby CF';
        font-size: 28.81px;
      }
    </style>
  </defs>
  <rect class="cls-3" y="0" width="176.32" height="95.52" rx="13.79" ry="13.79"/>
  <text class="cls-5" transform="translate(95.62 37.02)"><tspan x="0" y="0">HƏR</tspan></text>
  <text class="cls-5" transform="translate(97.37 75.61)"><tspan class="cls-1" x="0" y="0">K</tspan><tspan class="cls-2" x="16.6" y="0">Ə</tspan><tspan x="37.86" y="0">S</tspan></text>
  <path class="cls-4" d="M73.79,58.08c0,1.13,0,2.26,0,3.39,0,3.49,2.01,6.37,5.28,7.57,.58,.21,.81,.53,.8,1.14-.05,1.97-.92,3.48-2.68,4.38-1.77,.91-3.51,.71-5.14-.41-.17-.12-.33-.33-.51-.35-.19-.02-.32,.24-.48,.37-2.11,1.68-5.12,1.55-7.03-.3-.5-.48-.51-1.07-.02-1.56,.18-.18,.35-.37,.54-.53,.2-.16,.17-.26,0-.43-2.56-2.55-5.11-5.1-7.67-7.66-3.24-3.24-6.48-6.48-9.72-9.73-.2-.2-.29-.18-.48,0-3.39,3.4-6.78,6.79-10.17,10.17-.16,.16-.23,.31-.23,.55,.01,1.74,0,3.49,0,5.23,0,.37-.12,.67-.39,.93-1.97,1.96-3.93,3.93-5.89,5.89-.55,.55-1.1,.54-1.65-.01-.67-.67-1.35-1.34-2.01-2.02-.15-.15-.23-.18-.39,0-.34,.37-.71,.72-1.07,1.08-.48,.47-1.06,.47-1.54,0-.98-.98-1.96-1.95-2.93-2.93-.48-.48-.47-1.05,0-1.54,.36-.36,.71-.72,1.08-1.07,.15-.14,.16-.22,0-.37-.69-.67-1.36-1.35-2.04-2.03-.55-.55-.55-1.1,0-1.65,1.96-1.96,3.92-3.91,5.87-5.87,.28-.28,.59-.41,.99-.4,1.74,.01,3.49,0,5.23,0,.19,0,.33-.05,.47-.19,3.4-3.41,6.81-6.82,10.22-10.21,.19-.19,.2-.28,0-.48-5.79-5.77-11.57-11.55-17.34-17.34-.22-.22-.34-.24-.53,0-.13,.17-.31,.32-.47,.47-.52,.51-1.1,.5-1.6-.03-1.9-1.98-1.94-5.19-.08-7.21,.2-.21,.18-.33,.01-.54-.78-.97-1.18-2.08-1.15-3.34,.07-2.67,2.42-4.86,5.09-4.73,.54,.03,.83,.34,1,.83,.41,1.18,1.06,2.2,1.97,3.05,1.51,1.43,3.32,2.18,5.4,2.19,2.42,.02,4.84-.01,7.26,.01,4.78,.05,8.92,3.71,9.59,8.43,.15,1.02,.1,2.04,.11,3.07,0,.17,.04,.29,.17,.41,.9,.89,1.8,1.78,2.69,2.69,.16,.17,.24,.14,.39,0,2.58-2.59,5.16-5.17,7.75-7.75,.2-.19,.19-.41,.2-.63,.17-2.52,1.01-4.79,2.51-6.81,.22-.3,.46-.58,.7-.85,.1-.12,.12-.21,.06-.36-.56-1.44-.08-2.97,1.17-3.79,1.24-.82,2.86-.65,3.94,.44,2.63,2.66,5.26,5.32,7.87,7.99,1.07,1.09,1.21,2.71,.36,3.95-.83,1.22-2.37,1.68-3.78,1.1-.2-.08-.29,0-.41,.1-1.68,1.47-3.61,2.43-5.79,2.89-.64,.14-1.29,.22-1.94,.25-.18,0-.31,.07-.44,.2-2.57,2.58-5.15,5.16-7.73,7.73-.17,.17-.19,.26,0,.44,.89,.87,1.77,1.75,2.65,2.64,.14,.14,.28,.19,.47,.19,1.14,0,2.28-.04,3.41,.17,3.79,.7,6.95,3.72,7.8,7.5,.17,.76,.26,1.54,.26,2.32,0,1.13,0,2.26,0,3.39Zm-20.9-13.48c.44-.21,.68-.62,.61-1.06-.07-.44-.42-.79-.86-.86-.44-.07-.86,.17-1.06,.61-.18,.44-.11,.81,.22,1.12,.32,.3,.69,.39,1.1,.19Zm9.93-11.31c.23,.24,.47,.48,.7,.72,.09,.1,.16,.1,.26,0,.45-.46,.9-.91,1.36-1.36,.1-.1,.1-.16,0-.26-.24-.23-.48-.47-.72-.7-.21-.22-.43-.43-.64-.66-.09-.1-.16-.1-.25,0-.45,.46-.9,.91-1.36,1.36-.1,.1-.1,.16,0,.25,.22,.21,.44,.42,.66,.64Zm-13.3,9.63s-.06,.03-.07,.05c-.68,1.12-1.02,2.33-1,3.64,0,.62,.52,1.11,1.15,1.12,.59,.02,1.18-.07,1.75-.22,.68-.19,1.34-.41,1.91-.85,.03-.01,.06-.02,.09-.03,0,0-.02-.01-.02-.01-.04,0-.08,0-.06,.05-.09-.04-.19,0-.28,.01-1.53,.25-2.98-.68-3.41-2.16-.16-.53-.1-1.06-.05-1.59,.04,.01,.05-.02,.05-.05,0-.01-.02-.02-.03-.04,0,.03-.01,.06-.02,.09Zm5.95,1.52s.06-.03,.07-.05c.67-1.11,1.01-2.31,1-3.61,0-.65-.52-1.15-1.18-1.15-.87,0-1.72,.16-2.53,.49-.39,.16-.78,.3-1.1,.59-.03,0-.06,.01-.08,.02,.01,0,.02,.03,.03,.03,.03,0,.06,0,.05-.05,.09,0,.19,0,.28-.01,1.65-.27,3.18,.83,3.48,2.47,.08,.44,0,.86-.01,1.29-.04-.01-.05,.01-.05,.05,0,.01,.02,.02,.03,.03,0-.03,.01-.06,.02-.08Zm11.45,3.86c-.3,.85-.29,1.71-.11,2.58,.4,1.88,2.07,3.53,3.88,3.82,.25,.09,.52,.08,.78,.13,.23,.04,.31-.03,.3-.28-.11-2.91-1.38-5.16-3.86-6.7-.73-.46-.79-.42-.98,.45Zm-25.4-22.65c-.02,.1,.02,.19,.05,.28,.45,1.38,1.32,2.41,2.62,3.04,.88,.43,1.8,.62,2.78,.46,.49,0,.95-.18,1.4-.34,.25-.09,.31-.18,.17-.44-.77-1.41-1.84-2.51-3.25-3.28-1.15-.63-2.39-.93-3.7-.94-.1,0-.27-.08-.26,.15,.03,.37,.03,.73,.18,1.08Zm9.21,13.23c.57-.3,1.14-.6,1.81-.82-.68-.68-1.33-1.32-1.97-1.96-.09-.09-.15-.08-.23,0-.38,.39-.77,.78-1.15,1.17-1.08,1.08-2.17,2.16-3.26,3.23-.1,.1-.1,.16,0,.25,.48,.47,.95,.94,1.41,1.41,.11,.11,.16,.09,.23-.03,.77-1.36,1.85-2.42,3.16-3.26Zm6.56,6.56c-.14,.2-.27,.4-.41,.6-.75,1.03-1.66,1.88-2.77,2.51-.2,.12-.23,.18-.05,.35,.45,.43,.89,.88,1.32,1.32,.09,.09,.16,.14,.28,.02,1.07-1.09,2.15-2.17,3.23-3.26,.38-.38,.76-.76,1.15-1.13,.14-.13,.09-.2-.02-.3-.51-.5-1.02-1.02-1.53-1.52-.12-.12-.23-.27-.41-.36-.19,.64-.51,1.2-.8,1.77Zm7.55-17.73c-.16,.41-.09,.85-.16,1.28-.02,.1,.05,.15,.11,.21,.72,.72,1.45,1.45,2.17,2.17,.08,.08,.15,.13,.28,.12,.77-.05,1.53-.16,2.28-.36,1.49-.4,2.82-1.1,4.02-2.07,.18-.15,.21-.24,.02-.41-.29-.26-.56-.54-.84-.82-.01-.02-.02-.04-.03-.05-1.73-1.76-3.46-3.52-5.19-5.28-.15-.16-.22-.11-.34,.03-.53,.65-1,1.34-1.36,2.09-.48,.98-.85,1.99-.96,3.09Zm-6.13,22.37c-.34,.33-.67,.67-1.02,.99-.21,.19-.18,.25,.08,.35,4.03,1.54,6.9,4.3,8.65,8.23,.64,1.45,.9,3,1.23,4.53,.76,3.59,2.69,6.4,5.74,8.43,1.23,.81,2.87,.56,3.74-.54,.3-.31,.47-.69,.6-1.1,.07-.2,0-.27-.17-.35-3.75-1.86-5.7-4.88-5.8-9.07-.04-1.46,0-2.91,0-4.37,0-.23-.03-.34-.3-.33-.36,.02-.71-.05-1.07-.12-3.79-.7-6.33-4.42-5.62-8.21,.11-.57,.29-1.11,.51-1.66-1.06-.22-2.11-.12-3.15-.14-.08,0-.14,.04-.19,.09-1.08,1.09-2.15,2.17-3.23,3.26Zm-12.61-12.61c1.09-1.08,2.17-2.15,3.26-3.23,.09-.09,.09-.18,.09-.29,0-.65,0-1.31-.01-1.96-.01-.36-.04-.73-.14-1.09-1.35,.57-2.73,.75-4.17,.5-3.22-.56-5.73-3.43-5.81-6.7,0-.24-.07-.29-.3-.29-1.46,.01-2.91,0-4.37,0-.92,0-1.83-.1-2.72-.36-2.93-.85-5.06-2.66-6.36-5.42-.09-.2-.17-.27-.4-.19-.39,.14-.76,.3-1.07,.59-1.09,.88-1.34,2.51-.55,3.72,1.14,1.77,2.63,3.18,4.44,4.25,1.65,.98,3.47,1.44,5.33,1.8,3.83,.72,6.94,2.65,9.32,5.74,.91,1.19,1.62,2.49,2.14,3.9,.03,.08,.02,.36,.24,.14,.37-.36,.72-.74,1.08-1.11Zm5.62,12.04c-.31,0-.76,.18-.99,.41-.72,.72-1.42,1.44-2.16,2.14-.21,.2-.18,.3,0,.48,3.27,3.26,6.53,6.52,9.79,9.78,2.53,2.53,5.06,5.06,7.59,7.6,.17,.17,.27,.19,.43,0,.23-.26,.48-.5,.74-.74,.14-.12,.17-.22,.07-.39-.89-1.59-1.43-3.3-1.72-5.09-.3-1.81-.88-3.51-1.87-5.06-1.91-2.98-4.58-4.92-8.02-5.79-.39-.1-.71-.27-1-.56-.86-.89-1.74-1.75-2.62-2.62-.07-.07-.12-.18-.25-.16Zm-5.05-5.05c.03-.11-.09-.17-.17-.25-.86-.87-1.72-1.74-2.6-2.59-.32-.31-.48-.67-.6-1.08-1.48-5.24-4.88-8.51-10.19-9.69-1.99-.44-3.97-.86-5.77-1.89-.14-.08-.22-.05-.32,.06-.26,.27-.52,.55-.81,.8-.16,.15-.13,.23,0,.37,5.83,5.82,11.65,11.65,17.48,17.48,.16,.16,.23,.13,.37-.01,.71-.72,1.41-1.46,2.16-2.14,.32-.29,.35-.65,.45-1.04Zm-1.2,7.85c-.06-.07-.11-.12-.16-.17-.4-.4-.8-.78-1.18-1.19-.19-.21-.3-.21-.51,0-4.78,4.79-9.57,9.58-14.35,14.36-2.19,2.19-4.37,4.38-6.57,6.56-.18,.18-.17,.27,0,.44,.39,.37,.78,.75,1.14,1.14,.19,.21,.3,.21,.51,0,5.49-5.5,10.99-10.99,16.48-16.49,1.48-1.48,2.96-2.96,4.43-4.44,.07-.07,.13-.13,.2-.21Zm23.4-33.98c-.49,0-.88,.23-1.04,.66-.16,.44-.11,.85,.23,1.2,.62,.63,1.25,1.26,1.87,1.89,1.98,2.02,3.97,4.04,5.95,6.05,.47,.48,1.14,.5,1.59,.07,.44-.43,.46-1.11,.01-1.56-2.62-2.67-5.24-5.33-7.87-7.99-.21-.21-.46-.33-.75-.32Zm-34.63,48.16s-.05-.01-.06,0c-2.17,2.16-4.33,4.33-6.5,6.49-.13,.13-.06,.19,.03,.27,.43,.42,.86,.84,1.27,1.28,.14,.15,.22,.16,.37,0,1.58-1.59,3.16-3.17,4.74-4.75,.06-.06,.14-.12,.14-.23,0-1.02,0-2.04,0-3.05Zm-4.46-4.47c-.1-.06-.11-.08-.13-.08-.98,0-1.96,0-2.95,0-.13,0-.21,.06-.3,.14-1.59,1.59-3.18,3.18-4.77,4.77-.13,.13-.13,.2,0,.32,.43,.41,.85,.82,1.25,1.26,.18,.19,.26,.14,.41-.01,2.08-2.09,4.16-4.17,6.25-6.25,.06-.06,.14-.08,.23-.14Zm28.51-22.53c1.29-1.29,2.55-2.55,3.81-3.81,.14-.14,.02-.2-.05-.27-.42-.42-.84-.83-1.25-1.26-.15-.16-.23-.17-.39,0-1.18,1.19-2.37,2.38-3.55,3.56-.05,.05-.09,.11-.16,.18,.71,.34,1.23,.86,1.59,1.6ZM22.85,28.48c.01,.44,.09,.86,.25,1.26,.07,.19,.13,.22,.29,.06,.63-.64,1.26-1.28,1.9-1.9,.16-.15,.11-.22-.03-.33-.48-.36-.94-.76-1.35-1.19-.13-.14-.2-.12-.31,.02-.49,.61-.72,1.3-.75,2.07Zm44.84,44.86c.78-.02,1.48-.25,2.09-.75,.09-.07,.2-.12,.06-.26-.46-.45-.88-.94-1.27-1.45-.08-.11-.13-.12-.24-.02-.65,.66-1.31,1.32-1.97,1.97-.15,.15-.08,.19,.06,.25,.41,.16,.83,.25,1.27,.26Zm-20.99-25.46c-.44,.44-.85,.86-1.28,1.27-.1,.1-.07,.15,.01,.23,.46,.45,.91,.91,1.36,1.37,.1,.1,.16,.09,.25,0,.37-.38,.74-.75,1.12-1.12,.09-.09,.13-.15-.02-.23-.65-.32-1.11-.83-1.46-1.52Z"/>
</svg>